<?xml version="1.0" encoding="UTF-8" standalone="no"?>
<!DOCTYPE svg PUBLIC "-//W3C//DTD SVG 1.1//EN" "http://www.w3.org/Graphics/SVG/1.1/DTD/svg11.dtd">
<svg width="100%" height="100%" viewBox="0 0 483 284" version="1.1" xmlns="http://www.w3.org/2000/svg" xmlns:xlink="http://www.w3.org/1999/xlink" xml:space="preserve" xmlns:serif="http://www.serif.com/" style="fill-rule:evenodd;clip-rule:evenodd;stroke-linecap:round;stroke-linejoin:round;stroke-miterlimit:1.5;">
    <g transform="matrix(1,0,0,1,-3292.84,-45.1301)">
        <g transform="matrix(1,0,0,1,2583.5,0)">
            <g transform="matrix(1,0,0,1,702.923,2.63371)">
                <path d="M129.745,128.097L67.948,92.759L89.559,91.883L6.412,42.496L149.438,107.976L134.186,131.55" style="fill:rgb(207,201,212);"/>
            </g>
        </g>
        <g transform="matrix(1,0,0,1,2583.5,0)">
            <g transform="matrix(-1,-1.22465e-16,1.22465e-16,-1,1190.6,357.189)">
                <path d="M128.539,126.936L81.106,105.955L104.699,102.051L-1.182,33.404L153.016,102.865L134.953,129.896" style="fill:rgb(207,201,212);"/>
            </g>
        </g>
        <g transform="matrix(1,0,0,1,2583.5,0)">
            <g transform="matrix(1.92671,0,0,1.92671,428.127,-132.927)">
                <circle cx="269.514" cy="162.437" r="63.904" style="fill:rgb(207,201,212);stroke:rgb(27,20,100);stroke-width:2.7px;"/>
            </g>
        </g>
        <g transform="matrix(1,0,0,1,2583.5,0)">
            <g transform="matrix(1,0,0,1,702.923,2.63371)">
                <path d="M216.05,325.95C216.157,325.657 216.373,325.56 216.7,325.66C216.801,325.69 216.871,325.784 216.871,325.89C216.871,325.949 216.849,326.006 216.81,326.05C216.617,326.263 216.387,326.293 216.12,326.14C216.055,326.098 216.026,326.019 216.05,325.95Z" style="fill-rule:nonzero;"/>
            </g>
        </g>
        <g transform="matrix(1,0,0,1,2583.5,0)">
            <g transform="matrix(1.30228,0,0,1.30228,596.419,-31.4963)">
                <circle cx="269.514" cy="162.437" r="63.904" style="fill:rgb(102,45,145);stroke:rgb(27,20,100);stroke-width:4px;"/>
            </g>
        </g>
        <g transform="matrix(1,0,0,1,2583.5,0)">
            <g transform="matrix(-0.747997,-9.16032e-17,1.84777e-16,-1.50882,1128.19,586.717)">
                <path d="M241.546,221.462C241.563,221.428 241.625,221.403 241.697,221.403C241.769,221.403 241.832,221.428 241.849,221.462C243.001,223.766 250.338,238.44 251.002,239.768C251.014,239.791 251.003,239.816 250.973,239.834C250.944,239.853 250.898,239.864 250.85,239.864C248.97,239.864 234.424,239.864 232.544,239.864C232.496,239.864 232.451,239.853 232.421,239.834C232.392,239.816 232.381,239.791 232.393,239.768C233.057,238.44 240.394,223.766 241.546,221.462Z" style="fill:rgb(27,20,100);"/>
            </g>
        </g>
        <g transform="matrix(1,0,0,1,2583.5,0)">
            <g transform="matrix(1,0,0,1,702.923,2.63371)">
                <path d="M127.276,195.201C207.385,188.593 287.494,189.731 367.604,197.804L367.604,203.017L396.299,207.176L383.823,219.419L400.084,235.54L364.852,230.447L364.852,224.792C286.596,215.438 208.339,214.442 130.083,222.629L130.083,228.026C118.01,229.064 105.936,230.754 93.862,232.766L111.271,216.269L98.859,203.419C107.439,202.166 116.782,201.168 127.114,200.499L127.276,195.201Z" style="fill:url(#_Linear1);"/>
            </g>
        </g>
        <g transform="matrix(1,0,0,1,2583.5,0)">
            <g transform="matrix(1.10036,0,0,1.10036,684.527,-21.6975)">
                <path d="M173.382,126.433C172.503,127.402 171.623,128.003 170.744,128.236C169.865,128.469 168.997,128.403 168.141,128.038C167.284,127.673 166.425,127.1 165.564,126.318L160.864,122.052C159.959,121.231 159.284,120.412 158.838,119.595C158.392,118.777 158.247,117.925 158.405,117.037C158.563,116.149 159.081,115.221 159.961,114.252C160.811,113.315 161.634,112.722 162.43,112.472C163.226,112.223 164.01,112.247 164.781,112.544C165.552,112.841 166.314,113.332 167.068,114.016L168.166,115.013L165.821,117.597L164.593,116.483C164.292,116.209 163.994,115.969 163.701,115.762C163.408,115.554 163.112,115.448 162.813,115.442C162.514,115.436 162.204,115.61 161.881,115.965C161.559,116.321 161.41,116.657 161.436,116.975C161.462,117.293 161.592,117.598 161.828,117.89C162.063,118.183 162.348,118.48 162.682,118.783L168.625,124.178C168.991,124.51 169.339,124.771 169.667,124.961C169.995,125.151 170.308,125.228 170.605,125.193C170.901,125.158 171.191,124.985 171.475,124.673C171.788,124.328 171.926,124.007 171.892,123.711C171.857,123.414 171.716,123.119 171.47,122.828C171.225,122.536 170.946,122.248 170.633,121.965L169.358,120.807L171.703,118.223L172.785,119.205C173.549,119.899 174.127,120.62 174.519,121.368C174.91,122.116 175.036,122.907 174.896,123.743C174.757,124.578 174.252,125.475 173.382,126.433Z" style="fill:rgb(27,20,100);fill-rule:nonzero;"/>
                <path d="M185.693,115.213C184.659,115.991 183.7,116.422 182.816,116.505C181.933,116.588 181.1,116.382 180.318,115.888C179.536,115.393 178.783,114.664 178.057,113.7L174.095,108.437C173.37,107.473 172.879,106.55 172.625,105.667C172.37,104.785 172.41,103.937 172.743,103.122C173.076,102.307 173.759,101.51 174.793,100.732C175.839,99.945 176.804,99.505 177.689,99.412C178.575,99.319 179.404,99.514 180.177,99.997C180.95,100.479 181.699,101.203 182.425,102.167L186.386,107.43C187.112,108.394 187.605,109.32 187.863,110.208C188.122,111.096 188.087,111.956 187.757,112.786C187.427,113.617 186.739,114.426 185.693,115.213ZM184.132,113.139C184.504,112.86 184.714,112.57 184.761,112.27C184.809,111.971 184.754,111.657 184.598,111.328C184.442,111 184.241,110.673 183.997,110.348L178.973,103.674C178.728,103.348 178.472,103.068 178.204,102.833C177.936,102.598 177.651,102.462 177.35,102.425C177.049,102.387 176.713,102.509 176.341,102.788C175.992,103.051 175.794,103.332 175.747,103.631C175.699,103.931 175.752,104.242 175.903,104.565C176.055,104.887 176.253,105.211 176.498,105.536L181.522,112.211C181.767,112.536 182.023,112.821 182.289,113.066C182.556,113.312 182.839,113.453 183.141,113.49C183.442,113.527 183.772,113.411 184.132,113.139Z" style="fill:rgb(27,20,100);fill-rule:nonzero;"/>
                <path d="M195.666,108.17L188.464,92.034L191.922,90.419L198.616,99.593L196.012,88.508L199.352,86.947L207.107,102.824L204.736,103.932L199.41,93.203L202.443,105.003L200.408,105.954L193.168,96.023L198.057,107.053L195.666,108.17Z" style="fill:rgb(27,20,100);fill-rule:nonzero;"/>
                <path d="M213.893,100.536L210.456,83.204L214.187,82.397L218.675,92.83L218.6,81.443L222.202,80.663L226.236,97.866L223.678,98.42L220.869,86.776L221.205,98.955L219.009,99.43L214.157,88.139L216.472,99.978L213.893,100.536Z" style="fill:rgb(27,20,100);fill-rule:nonzero;"/>
                <path d="M233.486,97.276L233.185,79.611L240.883,79.48L240.926,81.966L236.826,82.036L236.906,86.725L240.068,86.671L240.111,89.179L236.949,89.233L237.043,94.772L241.186,94.701L241.228,97.144L233.486,97.276Z" style="fill:rgb(27,20,100);fill-rule:nonzero;"/>
                <path d="M247.672,97.467L250.439,80.018L254.963,80.736C256.141,80.923 257.129,81.216 257.927,81.614C258.725,82.013 259.296,82.586 259.641,83.333C259.987,84.08 260.065,85.049 259.876,86.241C259.762,86.959 259.6,87.585 259.39,88.118C259.181,88.652 258.889,89.099 258.515,89.459C258.141,89.819 257.655,90.077 257.056,90.233L258.119,99.124L254.479,98.547L253.729,90.323L252.48,90.125L251.226,98.031L247.672,97.467ZM252.815,88.014L253.849,88.178C254.423,88.269 254.891,88.248 255.25,88.113C255.61,87.979 255.889,87.732 256.086,87.373C256.282,87.014 256.425,86.555 256.514,85.995C256.642,85.191 256.592,84.553 256.365,84.083C256.137,83.613 255.622,83.314 254.817,83.186L253.611,82.995L252.815,88.014Z" style="fill:rgb(27,20,100);fill-rule:nonzero;"/>
                <path d="M269.056,102.712C267.825,102.268 266.935,101.683 266.385,100.959C265.835,100.235 265.566,99.407 265.577,98.476C265.589,97.545 265.792,96.532 266.188,95.438L268.344,89.468C268.759,88.32 269.259,87.383 269.845,86.66C270.431,85.936 271.165,85.478 272.046,85.286C272.927,85.094 273.983,85.221 275.214,85.665C276.403,86.095 277.265,86.631 277.799,87.272C278.333,87.913 278.609,88.646 278.627,89.472C278.646,90.299 278.482,91.19 278.136,92.148L277.632,93.542L274.35,92.357L274.913,90.798C275.052,90.415 275.161,90.049 275.241,89.699C275.321,89.349 275.307,89.035 275.199,88.756C275.091,88.477 274.811,88.256 274.36,88.093C273.908,87.93 273.541,87.921 273.257,88.066C272.972,88.211 272.74,88.447 272.559,88.776C272.379,89.105 272.212,89.482 272.059,89.906L269.332,97.455C269.164,97.92 269.054,98.34 269.004,98.716C268.953,99.092 269,99.411 269.146,99.672C269.291,99.933 269.562,100.135 269.958,100.278C270.396,100.437 270.745,100.443 271.007,100.298C271.268,100.152 271.486,99.911 271.663,99.572C271.839,99.234 271.999,98.867 272.142,98.47L272.728,96.849L276.01,98.035L275.513,99.409C275.163,100.38 274.716,101.189 274.173,101.836C273.63,102.482 272.946,102.9 272.12,103.089C271.295,103.277 270.273,103.152 269.056,102.712Z" style="fill:rgb(27,20,100);fill-rule:nonzero;"/>
                <path d="M279.938,107.222L288.434,91.732L291.57,93.452L283.074,108.942L279.938,107.222Z" style="fill:rgb(27,20,100);fill-rule:nonzero;"/>
                <path d="M288.657,112.257L302.139,100.337L305.303,102.769L297.234,118.85L294.589,116.816L296.453,113.353L294.24,111.651L291.338,114.317L288.657,112.257ZM295.842,110.104L297.519,111.394L301.018,105.088L295.842,110.104Z" style="fill:rgb(27,20,100);fill-rule:nonzero;"/>
                <path d="M301.874,123.297L314.921,111.384L317.348,114.042L306.105,124.307L308.899,127.367L307.095,129.015L301.874,123.297Z" style="fill:rgb(27,20,100);fill-rule:nonzero;"/>
            </g>
        </g>
        <g transform="matrix(1,0,0,1,2583.5,0)">
            <g transform="matrix(1.66533e-16,1.30883,-1.3244,1.66533e-16,1159.4,-31.04)">
                <path d="M217.6,222.409L207.557,211.595L210.394,209.022C211.133,208.352 211.842,207.861 212.522,207.547C213.202,207.234 213.878,207.158 214.55,207.319C215.222,207.48 215.901,207.93 216.587,208.669C217.001,209.114 217.328,209.542 217.57,209.955C217.811,210.367 217.953,210.787 217.995,211.217C218.037,211.646 217.953,212.096 217.742,212.565L224.153,216.467L221.869,218.538L216.063,214.777L215.279,215.488L219.829,220.388L217.6,222.409ZM214.064,214.179L214.712,213.591C215.073,213.265 215.303,212.949 215.402,212.646C215.502,212.342 215.485,212.034 215.352,211.72C215.218,211.407 214.99,211.076 214.668,210.729C214.205,210.231 213.759,209.934 213.331,209.839C212.902,209.744 212.436,209.925 211.932,210.382L211.175,211.069L214.064,214.179Z" style="fill:rgb(27,20,100);fill-rule:nonzero;"/>
                <path d="M229.333,210.639L217.436,201.851L221.311,196.728L222.985,197.964L220.921,200.693L224.079,203.025L225.671,200.921L227.36,202.168L225.769,204.273L229.499,207.028L231.585,204.271L233.23,205.486L229.333,210.639Z" style="fill:rgb(27,20,100);fill-rule:nonzero;"/>
                <path d="M239.163,195.849C238.749,196.657 238.254,197.256 237.678,197.645C237.102,198.034 236.441,198.214 235.695,198.186C234.949,198.159 234.096,197.932 233.135,197.506L233.918,195.013C234.475,195.264 234.959,195.436 235.372,195.527C235.784,195.618 236.128,195.614 236.405,195.515C236.681,195.417 236.891,195.227 237.035,194.947C237.212,194.602 237.223,194.313 237.068,194.08C236.913,193.847 236.694,193.66 236.41,193.518C235.854,193.24 235.32,193.138 234.809,193.214C234.297,193.29 233.74,193.448 233.138,193.689L231.248,194.45C230.585,194.727 229.913,194.889 229.232,194.934C228.551,194.98 227.829,194.812 227.065,194.43C225.975,193.884 225.299,193.15 225.038,192.228C224.778,191.306 224.929,190.295 225.492,189.195C225.828,188.538 226.213,188.053 226.647,187.742C227.08,187.431 227.539,187.25 228.023,187.201C228.507,187.152 228.988,187.19 229.466,187.314C229.944,187.437 230.401,187.595 230.837,187.786L230.013,190.238C229.599,190.057 229.226,189.915 228.896,189.811C228.566,189.707 228.276,189.684 228.027,189.742C227.778,189.8 227.579,189.975 227.43,190.266C227.27,190.579 227.269,190.869 227.426,191.137C227.583,191.405 227.804,191.61 228.087,191.752C228.556,191.987 228.994,192.074 229.402,192.014C229.81,191.953 230.271,191.822 230.786,191.619L232.643,190.882C233.404,190.572 234.194,190.375 235.011,190.29C235.829,190.204 236.691,190.388 237.596,190.841C238.218,191.152 238.708,191.573 239.066,192.104C239.424,192.635 239.617,193.222 239.644,193.865C239.671,194.508 239.511,195.169 239.163,195.849Z" style="fill:rgb(27,20,100);fill-rule:nonzero;"/>
                <path d="M243.429,185.314L229.284,180.836L230.201,178.006L244.346,182.483L243.429,185.314Z" style="fill:rgb(27,20,100);fill-rule:nonzero;"/>
                <path d="M246.427,174.543L231.723,172.474L232.235,168.921C232.412,167.69 232.711,166.752 233.131,166.11C233.55,165.467 234.123,165.05 234.848,164.86C235.573,164.669 236.468,164.648 237.533,164.798L242.889,165.552C243.978,165.705 244.853,165.975 245.514,166.361C246.174,166.747 246.622,167.301 246.858,168.024C247.093,168.746 247.124,169.711 246.95,170.919L246.427,174.543ZM244.766,171.289L244.857,170.661C244.936,170.111 244.905,169.707 244.763,169.449C244.621,169.191 244.382,169.008 244.046,168.9C243.709,168.792 243.287,168.702 242.779,168.63L236.715,167.777C236.207,167.705 235.793,167.686 235.473,167.721C235.153,167.755 234.904,167.879 234.725,168.091C234.546,168.304 234.419,168.674 234.343,169.2L234.255,169.81L244.766,171.289Z" style="fill:rgb(27,20,100);fill-rule:nonzero;"/>
                <path d="M247.932,158.258L233.092,158.873L232.82,152.482L234.909,152.395L235.053,155.799L238.992,155.636L238.881,153.011L240.988,152.923L241.099,155.549L245.753,155.356L245.607,151.916L247.659,151.831L247.932,158.258Z" style="fill:rgb(27,20,100);fill-rule:nonzero;"/>
                <path d="M246.745,144.41L232.242,147.578L231.787,145.543L238.63,140.708L231.075,142.358L230.536,139.952L245.039,136.784L245.475,138.73L238.166,143.667L246.187,141.915L246.745,144.41Z" style="fill:rgb(27,20,100);fill-rule:nonzero;"/>
                <path d="M241.897,127.756L230.29,132.595L231.181,134.682L229.103,135.549L226.152,128.636L228.23,127.77L229.107,129.823L240.714,124.985L241.897,127.756Z" style="fill:rgb(27,20,100);fill-rule:nonzero;"/>
                <path d="M236.288,116.498L223.64,124.193L222.063,121.662L234.711,113.967L236.288,116.498Z" style="fill:rgb(27,20,100);fill-rule:nonzero;"/>
                <path d="M230.425,107.785L217.323,115.261L215.123,112.758L224.461,100.999L226.301,103.092L224.185,105.604L225.724,107.355L228.561,105.664L230.425,107.785ZM224.146,108.35L222.979,107.023L219.041,111.579L224.146,108.35Z" style="fill:rgb(27,20,100);fill-rule:nonzero;"/>
                <path d="M218.927,95.925L209.69,107.419L207.32,105.56L215.28,95.655L212.552,93.514L213.829,91.924L218.927,95.925Z" style="fill:rgb(27,20,100);fill-rule:nonzero;"/>
            </g>
        </g>
        <g transform="matrix(1,0,0,1,2583.5,0)">
            <g transform="matrix(1.21918,0,0,0.18478,528.713,206.002)">
                <path d="M286.117,54.898L300.145,50.174L299.91,28.452L290.498,31.621L289.882,-25.464L285.267,-23.909L286.117,54.898Z" style="fill:rgb(27,20,100);fill-rule:nonzero;"/>
                <path d="M333.916,46.815C339.152,46.502 342.807,32.763 343.141,12.287L338.22,12.582C337.997,19.527 336.315,24.909 333.874,25.055C331.098,25.221 329.292,17.297 329.269,5.416C329.246,-6.355 331.022,-14.383 333.798,-14.549C336.239,-14.695 337.942,-9.516 338.191,-2.71L343.112,-3.004C342.699,-23.216 338.992,-36.513 333.756,-36.199C328.088,-35.86 324.401,-19.372 324.449,5.705C324.497,31.002 328.247,47.155 333.916,46.815Z" style="fill:rgb(27,20,100);fill-rule:nonzero;"/>
                <path d="M346.897,-13.038L352.999,-12.588L352.864,44.596L357.487,44.937L357.622,-12.247L363.704,-11.798L363.756,-33.558L346.948,-34.798L346.897,-13.038Z" style="fill:rgb(27,20,100);fill-rule:nonzero;"/>
                <path d="M368.62,46.087L373.24,47.1L373.397,24.792L379.831,26.202C381.091,26.478 381.43,28.643 381.381,35.677L381.288,48.864L385.908,49.876L386.03,32.513C386.098,22.854 384.998,16.782 383.194,15.726C385.124,12.953 386.236,6.046 386.312,-4.843C386.424,-20.773 384.555,-29.431 380.681,-30.28L369.174,-32.802L368.62,46.087ZM373.542,4.145L373.649,-11.144L379.434,-9.876C380.674,-9.604 381.511,-8.209 381.467,-1.829C381.422,4.55 380.566,5.685 379.327,5.413L373.542,4.145Z" style="fill:rgb(27,20,100);fill-rule:nonzero;"/>
                <path d="M391.425,51.768L396.04,53.323L396.891,-25.484L392.276,-27.039L391.425,51.768Z" style="fill:rgb(27,20,100);fill-rule:nonzero;"/>
                <path d="M410.437,61.475C415.655,63.931 419.527,52.186 420.207,31.979L415.303,29.671C414.963,36.467 413.197,40.935 410.764,39.79C407.999,38.488 406.334,29.645 406.513,17.805C406.69,6.075 408.594,-0.978 411.36,0.324C413.792,1.469 415.4,7.525 415.532,14.433L420.436,16.741C420.368,-3.598 416.903,-18.796 411.685,-21.252C406.036,-23.911 402.086,-9.446 401.709,15.544C401.329,40.753 404.789,58.816 410.437,61.475Z" style="fill:rgb(27,20,100);fill-rule:nonzero;"/>
                <g transform="matrix(0.820221,0,0,5.41184,142.891,-1099.14)">
                    <path d="M163.904,208.267L163.565,205.01L155.319,205.629L155.105,203.582L167.034,202.687L166.66,199.106L149.115,200.422L150.635,214.954L168.18,213.638L167.805,210.058L155.876,210.952L155.66,208.885L163.904,208.267Z" style="fill:rgb(27,20,100);fill-rule:nonzero;"/>
                </g>
                <g transform="matrix(0.820221,0,0,5.41184,142.891,-1099.14)">
                    <path d="M211.516,206.035L211.378,202.767L203.096,203.018L203.009,200.965L214.977,200.602L214.825,197.01L197.224,197.543L197.84,212.122L215.442,211.589L215.29,207.997L203.321,208.36L203.234,206.286L211.516,206.035Z" style="fill:rgb(27,20,100);fill-rule:nonzero;"/>
                </g>
            </g>
        </g>
        <g transform="matrix(1,0,0,1,2583.5,0)">
            <g transform="matrix(1.01068,0,0,1.0058,700.816,1.88211)">
                <path d="M226.793,181.155L226.793,108.556C226.793,107.642 226.054,106.9 225.145,106.9L195.485,106.9C194.576,106.9 193.838,107.642 193.838,108.556L193.838,181.155" style="fill:rgb(27,20,100);stroke:rgb(27,20,100);stroke-width:1.73px;"/>
            </g>
        </g>
        <g transform="matrix(1,0,0,1,2583.5,0)">
            <g transform="matrix(0.961336,0,0,1.0058,779.039,1.2653)">
                <path d="M226.793,181.236L226.793,97.708C226.755,95.954 225.804,95.744 225.145,96.133L195.485,116.601C194.668,117.186 193.868,117.643 193.838,118.176L193.838,181.236" style="fill:rgb(27,20,100);stroke:rgb(27,20,100);stroke-width:1.77px;"/>
            </g>
        </g>
        <g transform="matrix(1,0,0,1,2583.5,0)">
            <g transform="matrix(0.57865,0,0,1.0058,830.274,1.88211)">
                <path d="M226.793,181.863L226.793,107.848C226.793,107.368 213.047,87.793 210.798,84.594C210.747,84.521 210.624,84.473 210.487,84.472C210.35,84.472 210.226,84.52 210.174,84.593C207.881,87.787 193.838,107.368 193.838,107.848L193.838,181.863" style="fill:rgb(27,20,100);stroke:rgb(27,20,100);stroke-width:2.12px;"/>
            </g>
        </g>
        <g transform="matrix(1,0,0,1,2583.5,0)">
            <g transform="matrix(1,0,0,1,702.923,2.63371)">
                <g transform="matrix(1,0,0,1,0,0.200149)">
                    <path d="M200.026,110.89C200.026,110.598 199.79,110.362 199.498,110.362L198.442,110.362C198.15,110.362 197.914,110.598 197.914,110.89L197.914,112.727C197.914,113.019 198.15,113.256 198.442,113.256L199.498,113.256C199.79,113.256 200.026,113.019 200.026,112.727L200.026,110.89Z" style="fill:rgb(102,45,145);"/>
                </g>
                <g transform="matrix(1,0,0,1,6.33827,0.200149)">
                    <path d="M200.026,110.89C200.026,110.598 199.79,110.362 199.498,110.362L198.442,110.362C198.15,110.362 197.914,110.598 197.914,110.89L197.914,112.727C197.914,113.019 198.15,113.256 198.442,113.256L199.498,113.256C199.79,113.256 200.026,113.019 200.026,112.727L200.026,110.89Z" style="fill:rgb(102,45,145);"/>
                </g>
                <g transform="matrix(1,0,0,1,9.50741,0.200149)">
                    <path d="M200.026,110.89C200.026,110.598 199.79,110.362 199.498,110.362L198.442,110.362C198.15,110.362 197.914,110.598 197.914,110.89L197.914,112.727C197.914,113.019 198.15,113.256 198.442,113.256L199.498,113.256C199.79,113.256 200.026,113.019 200.026,112.727L200.026,110.89Z" style="fill:rgb(102,45,145);"/>
                </g>
                <g transform="matrix(1,0,0,1,12.6765,0.200149)">
                    <path d="M200.026,110.89C200.026,110.598 199.79,110.362 199.498,110.362L198.442,110.362C198.15,110.362 197.914,110.598 197.914,110.89L197.914,112.727C197.914,113.019 198.15,113.256 198.442,113.256L199.498,113.256C199.79,113.256 200.026,113.019 200.026,112.727L200.026,110.89Z" style="fill:rgb(102,45,145);"/>
                </g>
                <g transform="matrix(1,0,0,1,15.8457,0.200149)">
                    <path d="M200.026,110.89C200.026,110.598 199.79,110.362 199.498,110.362L198.442,110.362C198.15,110.362 197.914,110.598 197.914,110.89L197.914,112.727C197.914,113.019 198.15,113.256 198.442,113.256L199.498,113.256C199.79,113.256 200.026,113.019 200.026,112.727L200.026,110.89Z" style="fill:rgb(102,45,145);"/>
                </g>
                <g transform="matrix(1,0,0,1,19.0148,0.200149)">
                    <path d="M200.026,110.89C200.026,110.598 199.79,110.362 199.498,110.362L198.442,110.362C198.15,110.362 197.914,110.598 197.914,110.89L197.914,112.727C197.914,113.019 198.15,113.256 198.442,113.256L199.498,113.256C199.79,113.256 200.026,113.019 200.026,112.727L200.026,110.89Z" style="fill:rgb(102,45,145);"/>
                </g>
                <g transform="matrix(1,0,0,1,22.184,8.4231)">
                    <path d="M200.026,110.89C200.026,110.598 199.79,110.362 199.498,110.362L198.442,110.362C198.15,110.362 197.914,110.598 197.914,110.89L197.914,112.727C197.914,113.019 198.15,113.256 198.442,113.256L199.498,113.256C199.79,113.256 200.026,113.019 200.026,112.727L200.026,110.89Z" style="fill:rgb(102,45,145);"/>
                </g>
                <g transform="matrix(1,0,0,1,15.8457,8.4231)">
                    <path d="M200.026,110.89C200.026,110.598 199.79,110.362 199.498,110.362L198.442,110.362C198.15,110.362 197.914,110.598 197.914,110.89L197.914,112.727C197.914,113.019 198.15,113.256 198.442,113.256L199.498,113.256C199.79,113.256 200.026,113.019 200.026,112.727L200.026,110.89Z" style="fill:rgb(102,45,145);"/>
                </g>
                <g transform="matrix(1,0,0,1,19.0148,8.4231)">
                    <path d="M200.026,110.89C200.026,110.598 199.79,110.362 199.498,110.362L198.442,110.362C198.15,110.362 197.914,110.598 197.914,110.89L197.914,112.727C197.914,113.019 198.15,113.256 198.442,113.256L199.498,113.256C199.79,113.256 200.026,113.019 200.026,112.727L200.026,110.89Z" style="fill:rgb(102,45,145);"/>
                </g>
                <g transform="matrix(1,0,0,1,0,4.31162)">
                    <path d="M200.026,110.89C200.026,110.598 199.79,110.362 199.498,110.362L198.442,110.362C198.15,110.362 197.914,110.598 197.914,110.89L197.914,112.727C197.914,113.019 198.15,113.256 198.442,113.256L199.498,113.256C199.79,113.256 200.026,113.019 200.026,112.727L200.026,110.89Z" style="fill:rgb(102,45,145);"/>
                </g>
                <g transform="matrix(1,0,0,1,3.16914,8.4231)">
                    <path d="M200.026,110.89C200.026,110.598 199.79,110.362 199.498,110.362L198.442,110.362C198.15,110.362 197.914,110.598 197.914,110.89L197.914,112.727C197.914,113.019 198.15,113.256 198.442,113.256L199.498,113.256C199.79,113.256 200.026,113.019 200.026,112.727L200.026,110.89Z" style="fill:rgb(102,45,145);"/>
                </g>
                <g transform="matrix(1,0,0,1,6.33827,8.4231)">
                    <path d="M200.026,110.89C200.026,110.598 199.79,110.362 199.498,110.362L198.442,110.362C198.15,110.362 197.914,110.598 197.914,110.89L197.914,112.727C197.914,113.019 198.15,113.256 198.442,113.256L199.498,113.256C199.79,113.256 200.026,113.019 200.026,112.727L200.026,110.89Z" style="fill:rgb(102,45,145);"/>
                </g>
                <g transform="matrix(1,0,0,1,15.8457,12.5346)">
                    <path d="M200.026,110.89C200.026,110.598 199.79,110.362 199.498,110.362L198.442,110.362C198.15,110.362 197.914,110.598 197.914,110.89L197.914,112.727C197.914,113.019 198.15,113.256 198.442,113.256L199.498,113.256C199.79,113.256 200.026,113.019 200.026,112.727L200.026,110.89Z" style="fill:rgb(102,45,145);"/>
                </g>
                <g transform="matrix(1,0,0,1,19.0148,12.5346)">
                    <path d="M200.026,110.89C200.026,110.598 199.79,110.362 199.498,110.362L198.442,110.362C198.15,110.362 197.914,110.598 197.914,110.89L197.914,112.727C197.914,113.019 198.15,113.256 198.442,113.256L199.498,113.256C199.79,113.256 200.026,113.019 200.026,112.727L200.026,110.89Z" style="fill:rgb(102,45,145);"/>
                </g>
                <g transform="matrix(1,0,0,1,12.6765,12.5346)">
                    <path d="M200.026,110.89C200.026,110.598 199.79,110.362 199.498,110.362L198.442,110.362C198.15,110.362 197.914,110.598 197.914,110.89L197.914,112.727C197.914,113.019 198.15,113.256 198.442,113.256L199.498,113.256C199.79,113.256 200.026,113.019 200.026,112.727L200.026,110.89Z" style="fill:rgb(102,45,145);"/>
                </g>
                <g transform="matrix(1,0,0,1,9.50741,8.4231)">
                    <path d="M200.026,110.89C200.026,110.598 199.79,110.362 199.498,110.362L198.442,110.362C198.15,110.362 197.914,110.598 197.914,110.89L197.914,112.727C197.914,113.019 198.15,113.256 198.442,113.256L199.498,113.256C199.79,113.256 200.026,113.019 200.026,112.727L200.026,110.89Z" style="fill:rgb(102,45,145);"/>
                </g>
                <g transform="matrix(1,0,0,1,3.16914,16.646)">
                    <path d="M200.026,110.89C200.026,110.598 199.79,110.362 199.498,110.362L198.442,110.362C198.15,110.362 197.914,110.598 197.914,110.89L197.914,112.727C197.914,113.019 198.15,113.256 198.442,113.256L199.498,113.256C199.79,113.256 200.026,113.019 200.026,112.727L200.026,110.89Z" style="fill:rgb(102,45,145);"/>
                </g>
                <g transform="matrix(1,0,0,1,3.16914,24.869)">
                    <path d="M200.026,110.89C200.026,110.598 199.79,110.362 199.498,110.362L198.442,110.362C198.15,110.362 197.914,110.598 197.914,110.89L197.914,112.727C197.914,113.019 198.15,113.256 198.442,113.256L199.498,113.256C199.79,113.256 200.026,113.019 200.026,112.727L200.026,110.89Z" style="fill:rgb(102,45,145);"/>
                </g>
                <g transform="matrix(1,0,0,1,6.33827,16.646)">
                    <path d="M200.026,110.89C200.026,110.598 199.79,110.362 199.498,110.362L198.442,110.362C198.15,110.362 197.914,110.598 197.914,110.89L197.914,112.727C197.914,113.019 198.15,113.256 198.442,113.256L199.498,113.256C199.79,113.256 200.026,113.019 200.026,112.727L200.026,110.89Z" style="fill:rgb(102,45,145);"/>
                </g>
                <g transform="matrix(1,0,0,1,9.50741,16.646)">
                    <path d="M200.026,110.89C200.026,110.598 199.79,110.362 199.498,110.362L198.442,110.362C198.15,110.362 197.914,110.598 197.914,110.89L197.914,112.727C197.914,113.019 198.15,113.256 198.442,113.256L199.498,113.256C199.79,113.256 200.026,113.019 200.026,112.727L200.026,110.89Z" style="fill:rgb(102,45,145);"/>
                </g>
                <g transform="matrix(1,0,0,1,6.33827,20.7575)">
                    <path d="M200.026,110.89C200.026,110.598 199.79,110.362 199.498,110.362L198.442,110.362C198.15,110.362 197.914,110.598 197.914,110.89L197.914,112.727C197.914,113.019 198.15,113.256 198.442,113.256L199.498,113.256C199.79,113.256 200.026,113.019 200.026,112.727L200.026,110.89Z" style="fill:rgb(102,45,145);"/>
                </g>
                <g transform="matrix(1,0,0,1,9.50741,20.7575)">
                    <path d="M200.026,110.89C200.026,110.598 199.79,110.362 199.498,110.362L198.442,110.362C198.15,110.362 197.914,110.598 197.914,110.89L197.914,112.727C197.914,113.019 198.15,113.256 198.442,113.256L199.498,113.256C199.79,113.256 200.026,113.019 200.026,112.727L200.026,110.89Z" style="fill:rgb(102,45,145);"/>
                </g>
                <g transform="matrix(1,0,0,1,3.16914,28.9805)">
                    <path d="M200.026,110.89C200.026,110.598 199.79,110.362 199.498,110.362L198.442,110.362C198.15,110.362 197.914,110.598 197.914,110.89L197.914,112.727C197.914,113.019 198.15,113.256 198.442,113.256L199.498,113.256C199.79,113.256 200.026,113.019 200.026,112.727L200.026,110.89Z" style="fill:rgb(102,45,145);"/>
                </g>
                <g transform="matrix(1,0,0,1,0,28.9805)">
                    <path d="M200.026,110.89C200.026,110.598 199.79,110.362 199.498,110.362L198.442,110.362C198.15,110.362 197.914,110.598 197.914,110.89L197.914,112.727C197.914,113.019 198.15,113.256 198.442,113.256L199.498,113.256C199.79,113.256 200.026,113.019 200.026,112.727L200.026,110.89Z" style="fill:rgb(102,45,145);"/>
                </g>
                <g transform="matrix(1,0,0,1,6.33827,28.9805)">
                    <path d="M200.026,110.89C200.026,110.598 199.79,110.362 199.498,110.362L198.442,110.362C198.15,110.362 197.914,110.598 197.914,110.89L197.914,112.727C197.914,113.019 198.15,113.256 198.442,113.256L199.498,113.256C199.79,113.256 200.026,113.019 200.026,112.727L200.026,110.89Z" style="fill:rgb(102,45,145);"/>
                </g>
            </g>
        </g>
        <g transform="matrix(1,0,0,1,2583.5,0)">
            <g transform="matrix(1,0,0,1,701.865,2.87812)">
                <g transform="matrix(1,0,0,1,49.5536,3.06656)">
                    <path d="M200.026,110.89C200.026,110.598 199.79,110.362 199.498,110.362L198.442,110.362C198.15,110.362 197.914,110.598 197.914,110.89L197.914,112.727C197.914,113.019 198.15,113.256 198.442,113.256L199.498,113.256C199.79,113.256 200.026,113.019 200.026,112.727L200.026,110.89Z" style="fill:rgb(102,45,145);"/>
                </g>
                <g transform="matrix(1,0,0,1,52.7228,3.06656)">
                    <path d="M200.026,110.89C200.026,110.598 199.79,110.362 199.498,110.362L198.442,110.362C198.15,110.362 197.914,110.598 197.914,110.89L197.914,112.727C197.914,113.019 198.15,113.256 198.442,113.256L199.498,113.256C199.79,113.256 200.026,113.019 200.026,112.727L200.026,110.89Z" style="fill:rgb(102,45,145);"/>
                </g>
                <g transform="matrix(1,0,0,1,49.5536,11.2895)">
                    <path d="M200.026,110.89C200.026,110.598 199.79,110.362 199.498,110.362L198.442,110.362C198.15,110.362 197.914,110.598 197.914,110.89L197.914,112.727C197.914,113.019 198.15,113.256 198.442,113.256L199.498,113.256C199.79,113.256 200.026,113.019 200.026,112.727L200.026,110.89Z" style="fill:rgb(102,45,145);"/>
                </g>
                <g transform="matrix(1,0,0,1,52.7228,11.2895)">
                    <path d="M200.026,110.89C200.026,110.598 199.79,110.362 199.498,110.362L198.442,110.362C198.15,110.362 197.914,110.598 197.914,110.89L197.914,112.727C197.914,113.019 198.15,113.256 198.442,113.256L199.498,113.256C199.79,113.256 200.026,113.019 200.026,112.727L200.026,110.89Z" style="fill:rgb(102,45,145);"/>
                </g>
                <g transform="matrix(1,0,0,1,55.8919,3.06656)">
                    <path d="M200.026,110.89C200.026,110.598 199.79,110.362 199.498,110.362L198.442,110.362C198.15,110.362 197.914,110.598 197.914,110.89L197.914,112.727C197.914,113.019 198.15,113.256 198.442,113.256L199.498,113.256C199.79,113.256 200.026,113.019 200.026,112.727L200.026,110.89Z" style="fill:rgb(102,45,145);"/>
                </g>
                <g transform="matrix(1,0,0,1,52.7228,7.17803)">
                    <path d="M200.026,110.89C200.026,110.598 199.79,110.362 199.498,110.362L198.442,110.362C198.15,110.362 197.914,110.598 197.914,110.89L197.914,112.727C197.914,113.019 198.15,113.256 198.442,113.256L199.498,113.256C199.79,113.256 200.026,113.019 200.026,112.727L200.026,110.89Z" style="fill:rgb(102,45,145);"/>
                </g>
                <g transform="matrix(1,0,0,1,55.8919,7.17803)">
                    <path d="M200.026,110.89C200.026,110.598 199.79,110.362 199.498,110.362L198.442,110.362C198.15,110.362 197.914,110.598 197.914,110.89L197.914,112.727C197.914,113.019 198.15,113.256 198.442,113.256L199.498,113.256C199.79,113.256 200.026,113.019 200.026,112.727L200.026,110.89Z" style="fill:rgb(102,45,145);"/>
                </g>
                <g transform="matrix(1,0,0,1,55.8919,-1.04492)">
                    <path d="M200.026,110.89C200.026,110.598 199.79,110.362 199.498,110.362L198.442,110.362C198.15,110.362 197.914,110.598 197.914,110.89L197.914,112.727C197.914,113.019 198.15,113.256 198.442,113.256L199.498,113.256C199.79,113.256 200.026,113.019 200.026,112.727L200.026,110.89Z" style="fill:rgb(102,45,145);"/>
                </g>
                <g transform="matrix(1,0,0,1,52.7228,-1.04492)">
                    <path d="M200.026,110.89C200.026,110.598 199.79,110.362 199.498,110.362L198.442,110.362C198.15,110.362 197.914,110.598 197.914,110.89L197.914,112.727C197.914,113.019 198.15,113.256 198.442,113.256L199.498,113.256C199.79,113.256 200.026,113.019 200.026,112.727L200.026,110.89Z" style="fill:rgb(102,45,145);"/>
                </g>
                <g transform="matrix(1,0,0,1,55.8919,-5.15639)">
                    <path d="M200.026,110.89C200.026,110.598 199.79,110.362 199.498,110.362L198.442,110.362C198.15,110.362 197.914,110.598 197.914,110.89L197.914,112.727C197.914,113.019 198.15,113.256 198.442,113.256L199.498,113.256C199.79,113.256 200.026,113.019 200.026,112.727L200.026,110.89Z" style="fill:rgb(102,45,145);"/>
                </g>
                <g transform="matrix(1,0,0,1,52.7228,-5.15639)">
                    <path d="M200.026,110.89C200.026,110.598 199.79,110.362 199.498,110.362L198.442,110.362C198.15,110.362 197.914,110.598 197.914,110.89L197.914,112.727C197.914,113.019 198.15,113.256 198.442,113.256L199.498,113.256C199.79,113.256 200.026,113.019 200.026,112.727L200.026,110.89Z" style="fill:rgb(102,45,145);"/>
                </g>
                <g transform="matrix(1,0,0,1,46.3845,-1.04492)">
                    <path d="M200.026,110.89C200.026,110.598 199.79,110.362 199.498,110.362L198.442,110.362C198.15,110.362 197.914,110.598 197.914,110.89L197.914,112.727C197.914,113.019 198.15,113.256 198.442,113.256L199.498,113.256C199.79,113.256 200.026,113.019 200.026,112.727L200.026,110.89Z" style="fill:rgb(102,45,145);"/>
                </g>
                <g transform="matrix(1,0,0,1,46.3845,7.17803)">
                    <path d="M200.026,110.89C200.026,110.598 199.79,110.362 199.498,110.362L198.442,110.362C198.15,110.362 197.914,110.598 197.914,110.89L197.914,112.727C197.914,113.019 198.15,113.256 198.442,113.256L199.498,113.256C199.79,113.256 200.026,113.019 200.026,112.727L200.026,110.89Z" style="fill:rgb(102,45,145);"/>
                </g>
                <g transform="matrix(1,0,0,1,46.3845,-5.15639)">
                    <path d="M200.026,110.89C200.026,110.598 199.79,110.362 199.498,110.362L198.442,110.362C198.15,110.362 197.914,110.598 197.914,110.89L197.914,112.727C197.914,113.019 198.15,113.256 198.442,113.256L199.498,113.256C199.79,113.256 200.026,113.019 200.026,112.727L200.026,110.89Z" style="fill:rgb(102,45,145);"/>
                </g>
            </g>
        </g>
        <g transform="matrix(1,0,0,1,2583.5,0)">
            <g transform="matrix(1,0,0,1,702.923,2.63371)">
                <g transform="matrix(1,0,0,1,68.568,10.0451)">
                    <path d="M200.026,110.89C200.026,110.598 199.79,110.362 199.498,110.362L198.442,110.362C198.15,110.362 197.914,110.598 197.914,110.89L197.914,112.727C197.914,113.019 198.15,113.256 198.442,113.256L199.498,113.256C199.79,113.256 200.026,113.019 200.026,112.727L200.026,110.89Z" style="fill:rgb(102,45,145);"/>
                </g>
                <g transform="matrix(1,0,0,1,68.568,14.1566)">
                    <path d="M200.026,110.89C200.026,110.598 199.79,110.362 199.498,110.362L198.442,110.362C198.15,110.362 197.914,110.598 197.914,110.89L197.914,112.727C197.914,113.019 198.15,113.256 198.442,113.256L199.498,113.256C199.79,113.256 200.026,113.019 200.026,112.727L200.026,110.89Z" style="fill:rgb(102,45,145);"/>
                </g>
                <g transform="matrix(1,0,0,1,71.7372,10.0451)">
                    <path d="M200.026,110.89C200.026,110.598 199.79,110.362 199.498,110.362L198.442,110.362C198.15,110.362 197.914,110.598 197.914,110.89L197.914,112.727C197.914,113.019 198.15,113.256 198.442,113.256L199.498,113.256C199.79,113.256 200.026,113.019 200.026,112.727L200.026,110.89Z" style="fill:rgb(102,45,145);"/>
                </g>
                <g transform="matrix(1,0,0,1,74.9063,10.0451)">
                    <path d="M200.026,110.89C200.026,110.598 199.79,110.362 199.498,110.362L198.442,110.362C198.15,110.362 197.914,110.598 197.914,110.89L197.914,112.727C197.914,113.019 198.15,113.256 198.442,113.256L199.498,113.256C199.79,113.256 200.026,113.019 200.026,112.727L200.026,110.89Z" style="fill:rgb(102,45,145);"/>
                </g>
                <g transform="matrix(1,0,0,1,74.9063,5.93366)">
                    <path d="M200.026,110.89C200.026,110.598 199.79,110.362 199.498,110.362L198.442,110.362C198.15,110.362 197.914,110.598 197.914,110.89L197.914,112.727C197.914,113.019 198.15,113.256 198.442,113.256L199.498,113.256C199.79,113.256 200.026,113.019 200.026,112.727L200.026,110.89Z" style="fill:rgb(102,45,145);"/>
                </g>
                <g transform="matrix(1,0,0,1,78.0754,10.0451)">
                    <path d="M200.026,110.89C200.026,110.598 199.79,110.362 199.498,110.362L198.442,110.362C198.15,110.362 197.914,110.598 197.914,110.89L197.914,112.727C197.914,113.019 198.15,113.256 198.442,113.256L199.498,113.256C199.79,113.256 200.026,113.019 200.026,112.727L200.026,110.89Z" style="fill:rgb(102,45,145);"/>
                </g>
                <g transform="matrix(1,0,0,1,74.9063,14.1566)">
                    <path d="M200.026,110.89C200.026,110.598 199.79,110.362 199.498,110.362L198.442,110.362C198.15,110.362 197.914,110.598 197.914,110.89L197.914,112.727C197.914,113.019 198.15,113.256 198.442,113.256L199.498,113.256C199.79,113.256 200.026,113.019 200.026,112.727L200.026,110.89Z" style="fill:rgb(102,45,145);"/>
                </g>
                <g transform="matrix(1,0,0,1,78.0754,14.1566)">
                    <path d="M200.026,110.89C200.026,110.598 199.79,110.362 199.498,110.362L198.442,110.362C198.15,110.362 197.914,110.598 197.914,110.89L197.914,112.727C197.914,113.019 198.15,113.256 198.442,113.256L199.498,113.256C199.79,113.256 200.026,113.019 200.026,112.727L200.026,110.89Z" style="fill:rgb(102,45,145);"/>
                </g>
                <g transform="matrix(1,0,0,1,81.2446,10.0451)">
                    <path d="M200.026,110.89C200.026,110.598 199.79,110.362 199.498,110.362L198.442,110.362C198.15,110.362 197.914,110.598 197.914,110.89L197.914,112.727C197.914,113.019 198.15,113.256 198.442,113.256L199.498,113.256C199.79,113.256 200.026,113.019 200.026,112.727L200.026,110.89Z" style="fill:rgb(102,45,145);"/>
                </g>
                <g transform="matrix(1,0,0,1,84.4137,10.0451)">
                    <path d="M200.026,110.89C200.026,110.598 199.79,110.362 199.498,110.362L198.442,110.362C198.15,110.362 197.914,110.598 197.914,110.89L197.914,112.727C197.914,113.019 198.15,113.256 198.442,113.256L199.498,113.256C199.79,113.256 200.026,113.019 200.026,112.727L200.026,110.89Z" style="fill:rgb(102,45,145);"/>
                </g>
                <g transform="matrix(1,0,0,1,87.5828,10.0451)">
                    <path d="M200.026,110.89C200.026,110.598 199.79,110.362 199.498,110.362L198.442,110.362C198.15,110.362 197.914,110.598 197.914,110.89L197.914,112.727C197.914,113.019 198.15,113.256 198.442,113.256L199.498,113.256C199.79,113.256 200.026,113.019 200.026,112.727L200.026,110.89Z" style="fill:rgb(102,45,145);"/>
                </g>
                <g transform="matrix(1,0,0,1,87.5828,14.1566)">
                    <path d="M200.026,110.89C200.026,110.598 199.79,110.362 199.498,110.362L198.442,110.362C198.15,110.362 197.914,110.598 197.914,110.89L197.914,112.727C197.914,113.019 198.15,113.256 198.442,113.256L199.498,113.256C199.79,113.256 200.026,113.019 200.026,112.727L200.026,110.89Z" style="fill:rgb(102,45,145);"/>
                </g>
                <g transform="matrix(1,0,0,1,84.4137,5.93366)">
                    <path d="M200.026,110.89C200.026,110.598 199.79,110.362 199.498,110.362L198.442,110.362C198.15,110.362 197.914,110.598 197.914,110.89L197.914,112.727C197.914,113.019 198.15,113.256 198.442,113.256L199.498,113.256C199.79,113.256 200.026,113.019 200.026,112.727L200.026,110.89Z" style="fill:rgb(102,45,145);"/>
                </g>
                <g transform="matrix(1,0,0,1,81.2446,1.82218)">
                    <path d="M200.026,110.89C200.026,110.598 199.79,110.362 199.498,110.362L198.442,110.362C198.15,110.362 197.914,110.598 197.914,110.89L197.914,112.727C197.914,113.019 198.15,113.256 198.442,113.256L199.498,113.256C199.79,113.256 200.026,113.019 200.026,112.727L200.026,110.89Z" style="fill:rgb(102,45,145);"/>
                </g>
                <g transform="matrix(1,0,0,1,78.0754,5.93366)">
                    <path d="M200.026,110.89C200.026,110.598 199.79,110.362 199.498,110.362L198.442,110.362C198.15,110.362 197.914,110.598 197.914,110.89L197.914,112.727C197.914,113.019 198.15,113.256 198.442,113.256L199.498,113.256C199.79,113.256 200.026,113.019 200.026,112.727L200.026,110.89Z" style="fill:rgb(102,45,145);"/>
                </g>
                <g transform="matrix(1,0,0,1,87.5828,5.93366)">
                    <path d="M200.026,110.89C200.026,110.598 199.79,110.362 199.498,110.362L198.442,110.362C198.15,110.362 197.914,110.598 197.914,110.89L197.914,112.727C197.914,113.019 198.15,113.256 198.442,113.256L199.498,113.256C199.79,113.256 200.026,113.019 200.026,112.727L200.026,110.89Z" style="fill:rgb(102,45,145);"/>
                </g>
                <g transform="matrix(1,0,0,1,90.752,5.93366)">
                    <path d="M200.026,110.89C200.026,110.598 199.79,110.362 199.498,110.362L198.442,110.362C198.15,110.362 197.914,110.598 197.914,110.89L197.914,112.727C197.914,113.019 198.15,113.256 198.442,113.256L199.498,113.256C199.79,113.256 200.026,113.019 200.026,112.727L200.026,110.89Z" style="fill:rgb(102,45,145);"/>
                </g>
                <g transform="matrix(1,0,0,1,84.4137,-2.28929)">
                    <path d="M200.026,110.89C200.026,110.598 199.79,110.362 199.498,110.362L198.442,110.362C198.15,110.362 197.914,110.598 197.914,110.89L197.914,112.727C197.914,113.019 198.15,113.256 198.442,113.256L199.498,113.256C199.79,113.256 200.026,113.019 200.026,112.727L200.026,110.89Z" style="fill:rgb(102,45,145);"/>
                </g>
                <g transform="matrix(1,0,0,1,87.5828,-2.28929)">
                    <path d="M200.026,110.89C200.026,110.598 199.79,110.362 199.498,110.362L198.442,110.362C198.15,110.362 197.914,110.598 197.914,110.89L197.914,112.727C197.914,113.019 198.15,113.256 198.442,113.256L199.498,113.256C199.79,113.256 200.026,113.019 200.026,112.727L200.026,110.89Z" style="fill:rgb(102,45,145);"/>
                </g>
                <g transform="matrix(1,0,0,1,90.752,-2.28929)">
                    <path d="M200.026,110.89C200.026,110.598 199.79,110.362 199.498,110.362L198.442,110.362C198.15,110.362 197.914,110.598 197.914,110.89L197.914,112.727C197.914,113.019 198.15,113.256 198.442,113.256L199.498,113.256C199.79,113.256 200.026,113.019 200.026,112.727L200.026,110.89Z" style="fill:rgb(102,45,145);"/>
                </g>
                <g transform="matrix(1,0,0,1,87.5828,-6.40077)">
                    <path d="M200.026,110.89C200.026,110.598 199.79,110.362 199.498,110.362L198.442,110.362C198.15,110.362 197.914,110.598 197.914,110.89L197.914,112.727C197.914,113.019 198.15,113.256 198.442,113.256L199.498,113.256C199.79,113.256 200.026,113.019 200.026,112.727L200.026,110.89Z" style="fill:rgb(102,45,145);"/>
                </g>
                <g transform="matrix(1,0,0,1,90.752,-6.40077)">
                    <path d="M200.026,110.89C200.026,110.598 199.79,110.362 199.498,110.362L198.442,110.362C198.15,110.362 197.914,110.598 197.914,110.89L197.914,112.727C197.914,113.019 198.15,113.256 198.442,113.256L199.498,113.256C199.79,113.256 200.026,113.019 200.026,112.727L200.026,110.89Z" style="fill:rgb(102,45,145);"/>
                </g>
                <g transform="matrix(1,0,0,1,87.5828,1.82218)">
                    <path d="M200.026,110.89C200.026,110.598 199.79,110.362 199.498,110.362L198.442,110.362C198.15,110.362 197.914,110.598 197.914,110.89L197.914,112.727C197.914,113.019 198.15,113.256 198.442,113.256L199.498,113.256C199.79,113.256 200.026,113.019 200.026,112.727L200.026,110.89Z" style="fill:rgb(102,45,145);"/>
                </g>
                <g transform="matrix(1,0,0,1,90.752,1.82218)">
                    <path d="M200.026,110.89C200.026,110.598 199.79,110.362 199.498,110.362L198.442,110.362C198.15,110.362 197.914,110.598 197.914,110.89L197.914,112.727C197.914,113.019 198.15,113.256 198.442,113.256L199.498,113.256C199.79,113.256 200.026,113.019 200.026,112.727L200.026,110.89Z" style="fill:rgb(102,45,145);"/>
                </g>
            </g>
        </g>
        <g transform="matrix(1,0,0,1,2583.5,0)">
            <g transform="matrix(1,0,0,1,-3.67001,62.6973)">
                <g>
                    <g transform="matrix(1.06306,0,0,1.06306,693.605,-58.0729)">
                        <path d="M183.3,142.95L192.57,130.13C192.85,129.737 193.233,129.54 193.72,129.54L195.545,129.54C196.099,129.54 196.215,129.763 195.895,130.21L184.231,147.481C183.973,147.845 182.565,163.368 182.446,163.792C182.048,164.503 174.741,172.176 173.826,172.31C168.626,173.08 153.51,172.862 153.57,172.443C153.573,172.426 153.576,172.408 153.58,172.39C154.653,167.483 155.897,162.557 157.31,157.61C157.777,155.957 157.87,154.38 157.59,152.88C156.61,147.687 155.37,141.993 153.87,135.8C153.623,134.807 153.553,133.83 153.66,132.87C153.753,131.99 154.243,131.547 155.13,131.54C159.23,131.513 163.333,131.26 167.44,130.78C171.25,130.34 174.98,130.6 178.75,130.4C179.197,130.373 179.47,130.577 179.57,131.01L182.28,142.74C182.296,142.804 182.323,142.865 182.36,142.921C182.536,143.186 182.896,143.261 183.156,143.088C183.212,143.051 183.261,143.004 183.3,142.95Z" style="fill:rgb(27,20,100);fill-rule:nonzero;stroke:rgb(27,20,100);stroke-width:0.94px;stroke-linecap:butt;stroke-miterlimit:2;"/>
                    </g>
                    <g transform="matrix(1.09607,0,0,1.09607,671.941,-60.7701)">
                        <path d="M277.754,163.621C277.394,164.941 273.167,170.15 272.527,171.01C272.388,171.194 272.172,171.308 271.937,171.32C268.75,171.5 255.03,170.94 250.64,170.83C250.072,170.818 249.612,170.348 249.612,169.78C249.612,169.737 249.615,169.693 249.62,169.65C249.767,168.483 249.99,167.307 250.29,166.12C253.25,154.367 256.353,142.503 259.6,130.53C259.94,129.29 260.753,128.63 262.04,128.55C263.74,128.45 265.51,128.47 267.35,128.61C272.99,129.037 278.16,129.183 282.86,129.05C282.925,129.048 282.991,129.05 283.056,129.057C283.831,129.137 284.402,129.845 284.321,130.625C284.315,130.687 284.304,130.749 284.29,130.81C281.323,142.937 281.154,151.128 277.754,163.621Z" style="fill:rgb(27,20,100);fill-rule:nonzero;stroke:rgb(27,20,100);stroke-width:0.91px;stroke-linecap:butt;stroke-miterlimit:2;"/>
                    </g>
                    <g transform="matrix(1.06306,0,0,1.06306,686.398,-58.0729)">
                        <path d="M183.3,142.95L192.57,130.13C192.85,129.737 193.233,129.54 193.72,129.54L198.71,129.54C199.263,129.54 199.38,129.763 199.06,130.21L183.79,151.51C183.532,151.874 183.339,152.276 183.22,152.7L178.38,170.63C178.145,171.513 177.23,172.606 176.306,172.645C171.053,172.866 166.318,173.034 161.166,173.157C158.117,173.229 156.643,173.279 154.27,173.106C154.251,173.105 154.232,173.103 154.213,173.1C153.8,173.04 153.51,172.647 153.57,172.229C153.573,172.211 153.576,172.194 153.58,172.176C154.653,167.269 155.897,162.557 157.31,157.61C157.777,155.957 157.87,154.38 157.59,152.88C156.61,147.687 155.37,141.993 153.87,135.8C153.623,134.807 153.553,133.83 153.66,132.87C153.753,131.99 154.632,129.763 155.513,129.663C159.613,129.195 163.208,129.53 167.314,129.05C171.124,128.61 174.98,130.6 178.75,130.4C179.197,130.373 179.47,130.577 179.57,131.01L182.28,142.74C182.296,142.804 182.323,142.865 182.36,142.921C182.536,143.186 182.896,143.261 183.156,143.088C183.212,143.051 183.261,143.004 183.3,142.95Z" style="fill:rgb(27,20,100);fill-rule:nonzero;stroke:rgb(27,20,100);stroke-width:0.94px;stroke-linecap:butt;stroke-miterlimit:2;"/>
                    </g>
                    <g transform="matrix(1,0,0,1,0.513941,0)">
                        <path d="M847.311,81.71C849.176,81.55 851.475,81.529 854.209,81.645C854.641,81.66 854.804,81.876 854.698,82.294L853.326,87.652C853.234,88.02 853.004,88.25 852.635,88.343C850.644,88.839 848.617,89.027 846.555,88.906C846.14,88.881 845.761,89.153 845.651,89.555C842.901,99.703 844.414,107.401 840.836,117.085C840.103,119.066 833.187,126.489 830.561,126.648C824.807,126.996 805.663,128.909 804.111,128.781C803.736,128.753 803.565,128.551 803.601,128.176C803.721,127.02 803.923,125.876 804.207,124.742C806.843,114.104 808.049,103.353 810.862,92.489C810.873,92.448 810.878,92.407 810.878,92.365C810.878,92.091 810.652,91.866 810.378,91.866C810.352,91.866 810.325,91.868 810.299,91.872L807.073,92.648C806.074,92.797 805.702,92.382 805.957,91.404L807.052,87.088C807.328,86.025 808.012,85.43 809.104,85.302C819.543,84.09 829.596,82.921 839.263,81.794C841.261,81.56 843.841,81.511 847.002,81.645C847.128,81.649 847.231,81.671 847.311,81.71Z" style="fill:rgb(27,20,100);fill-rule:nonzero;stroke:rgb(27,20,100);stroke-width:1px;stroke-linecap:butt;stroke-miterlimit:2;"/>
                    </g>
                    <g transform="matrix(1,0,0,1,0.513941,0)">
                        <path d="M804.478,86.91L810.336,85.982C810.397,85.973 810.459,85.968 810.521,85.968C811.174,85.968 811.712,86.495 811.712,87.134C811.712,87.23 811.7,87.326 811.676,87.419C808.43,100.03 809.85,109.983 804.65,121.915C804.019,123.363 799.475,127.836 798.709,128.905C798.504,129.196 798.22,129.367 797.859,129.415L771.535,133.14C771.496,133.145 771.456,133.148 771.416,133.148C770.95,133.146 770.567,132.766 770.569,132.305C770.569,132.264 770.572,132.224 770.578,132.183C770.784,130.73 771.064,129.306 771.418,127.91C773.87,118.328 776.216,108.934 778.455,99.728C779.15,96.851 779.93,94.055 780.794,91.34C781.151,90.214 782.116,89.382 783.282,89.193L803.129,85.983C803.19,85.973 803.252,85.968 803.314,85.968C803.882,85.968 804.363,86.375 804.478,86.91Z" style="fill:rgb(27,20,100);fill-rule:nonzero;stroke:rgb(27,20,100);stroke-width:1px;stroke-linecap:butt;stroke-miterlimit:2;"/>
                    </g>
                    <g transform="matrix(1,0,0,1,0.513941,0)">
                        <path d="M776.411,90.799C778.362,90.482 780.312,90.184 782.261,89.905C783.466,89.735 783.873,90.224 783.483,91.372C783.03,92.712 782.732,94.041 782.59,95.359C782.484,96.294 781.974,96.858 781.059,97.049C779.103,97.467 777.154,97.868 775.213,98.25C769.376,99.398 766.017,105.298 764.412,111.103C763.264,115.27 762.155,118.677 761.085,122.858C760.482,125.204 760.482,127.26 762.321,128.031C763.956,127.84 765.508,127.565 766.974,127.206C767.534,127.072 772.168,125.573 774.222,125.071C774.781,124.936 774.961,126.582 774.826,127.142L772.459,131.374C772.185,132.537 770.424,133.391 769.276,133.723C763.373,135.43 760.004,136.232 754.483,137.061C751.9,137.449 747.692,137.753 744.058,137.694C739.138,137.615 734.109,137.563 730.66,134.648C724.271,129.247 728.12,115.681 731.681,109.558C738.729,97.439 749.45,85.519 763.398,83.074C766.573,82.521 771.886,90.359 775.054,89.905C776.034,89.767 776.486,90.065 776.411,90.799Z" style="fill:rgb(27,20,100);fill-rule:nonzero;stroke:rgb(27,20,100);stroke-width:1px;stroke-linecap:butt;stroke-miterlimit:2;"/>
                    </g>
                    <g transform="matrix(1,0,0,1,0.513941,0)">
                        <path d="M932.449,79.636L939.656,79.636C939.698,79.636 939.739,79.639 939.78,79.644C940.322,79.713 940.713,80.211 940.646,80.748C940.64,80.791 940.632,80.833 940.621,80.875L931.359,115.869C931.257,116.278 931.418,116.493 931.841,116.515L940.087,116.42C941.066,116.471 941.424,116.971 941.161,117.921L938.049,124.794C937.758,125.819 936.806,126.527 935.736,126.515C934.567,126.505 896.707,126.296 895.72,126.033C894.865,125.799 894.547,125.254 894.767,124.4L905.771,81.795C906.1,80.527 912.133,68.658 913.072,68.006L932.449,79.636Z" style="fill:rgb(27,20,100);fill-rule:nonzero;stroke:rgb(27,20,100);stroke-width:1px;stroke-linecap:butt;stroke-miterlimit:2;"/>
                    </g>
                    <g transform="matrix(1.09607,0,0,1.09607,664.734,-60.7701)">
                        <path d="M274.74,167.74C274.38,169.06 273.88,170.15 273.24,171.01C273.101,171.194 255.03,170.94 250.64,170.83C250.072,170.818 249.612,170.348 249.612,169.78C249.612,169.737 249.615,169.693 249.62,169.65C249.767,168.483 249.99,167.307 250.29,166.12C253.25,154.367 256.353,142.503 259.6,130.53C259.94,129.29 265.062,117.933 266.349,117.853C268.049,117.753 265.51,128.47 267.35,128.61C272.99,129.037 278.16,129.183 282.86,129.05C282.925,129.048 282.991,129.05 283.056,129.057C283.831,129.137 284.402,129.845 284.321,130.625C284.315,130.687 284.304,130.749 284.29,130.81C281.323,142.937 278.14,155.247 274.74,167.74Z" style="fill:rgb(27,20,100);fill-rule:nonzero;stroke:rgb(27,20,100);stroke-width:0.91px;stroke-linecap:butt;stroke-miterlimit:2;"/>
                    </g>
                    <g transform="matrix(1,0,0,1,0.513941,0)">
                        <path d="M1025.36,129.564C1021.12,130.218 1010.96,130.753 1005.43,130.285C995.462,129.443 975.503,127.151 974.133,113.801C972.653,99.3 993.229,74.68 1008.48,97.572C1010.65,100.832 1015.55,88.454 1016.41,88.576C1022.15,89.394 1016.26,99.036 1017.78,99.91C1018.26,99.537 1018.9,99.351 1019.55,99.409C1022.38,99.662 1025.23,99.942 1028.32,100.209C1032.42,100.565 1036.11,100.776 1039.37,101.294C1039.38,101.298 1039.4,101.301 1039.42,101.305C1040.1,101.448 1040.53,102.112 1040.39,102.777C1040.38,102.798 1040.38,102.819 1040.37,102.84C1038.41,110.118 1036.39,117.345 1034.31,124.52C1033.19,128.4 1028.76,129.039 1025.36,129.564Z" style="fill:rgb(27,20,100);fill-rule:nonzero;stroke:rgb(27,20,100);stroke-width:1px;stroke-linecap:butt;stroke-miterlimit:2;"/>
                    </g>
                    <g transform="matrix(1.09607,0,0,1.09607,664.734,-60.7701)">
                        <path d="M364.35,151.56C364.31,151.727 364.377,151.823 364.55,151.85L369.7,152.66C369.807,152.68 369.873,152.637 369.9,152.53L373.38,139.13C373.604,138.257 374.476,137.696 375.37,137.85L393.59,140.97C394.378,141.106 394.96,141.796 394.96,142.596C394.96,142.732 394.943,142.868 394.91,143L394.732,173.566C393.247,174.815 385.457,179.18 384.037,178.993L363.85,176.673C363.825,176.67 363.799,176.665 363.774,176.661C363.009,176.515 362.475,175.801 362.62,175.041C362.624,175.016 362.649,174.876 362.729,174.759L369.119,170.317C369.173,170.083 369.08,170.039 368.849,169.997C368.413,169.918 368.208,169.835 367.819,169.883C367.715,169.896 367.54,170.043 367.351,170.173L358.917,174.333C357.872,175.012 356.618,175.206 356.09,175.265C354.576,175.438 338.657,174.053 336.577,173.403C336.257,173.303 336.1,173.083 336.107,172.743C336.127,171.643 336.267,170.593 336.527,169.593C339.473,158.16 346.896,137.962 349.863,126.655C350.089,125.795 350.406,124.985 350.813,124.225C350.973,123.925 351.223,123.759 351.563,123.725C354.883,123.355 355.132,134.931 356.416,135.089C357.476,135.219 366.222,136.546 367.25,137.01C367.612,137.173 367.827,137.555 367.73,137.94L364.35,151.56Z" style="fill:rgb(27,20,100);fill-rule:nonzero;stroke:rgb(27,20,100);stroke-width:0.91px;stroke-linecap:butt;stroke-miterlimit:2;"/>
                    </g>
                    <g transform="matrix(1,0,0,1,0.513941,0)">
                        <path d="M1122.56,141.727C1121.36,141.791 1096.87,137.769 1096.14,137.502C1095.57,137.297 1095.24,136.708 1095.38,136.121L1103.9,103.476C1103.91,103.433 1103.91,103.389 1103.91,103.345C1103.91,103.078 1103.72,102.846 1103.46,102.796L1098.53,101.777C1097.88,101.645 1097.64,101.262 1097.81,100.626L1099.93,93.147C1100.16,92.241 1100.73,91.894 1101.64,92.106L1131.92,99.121C1132.58,99.273 1133.06,99.79 1133.2,100.408L1138.31,101.59C1139.22,101.801 1139.79,102.719 1139.59,103.629L1138.68,107.619C1138.49,108.466 1137.97,108.795 1137.12,108.605L1133.27,107.728C1132.87,107.641 1132.63,107.79 1132.53,108.178L1124.21,140.357C1124,141.226 1123.45,141.679 1122.56,141.727Z" style="fill:rgb(27,20,100);fill-rule:nonzero;stroke:rgb(27,20,100);stroke-width:1px;stroke-linecap:butt;stroke-miterlimit:2;"/>
                    </g>
                    <g transform="matrix(1.09607,0,0,1.09607,664.734,-60.7701)">
                        <path d="M427.91,179.62C428.09,175.487 428.007,171.477 427.66,167.59C427.527,166.063 427.52,164.507 427.64,162.92C427.8,160.86 429.307,150.561 429.997,148.741C431.87,143.807 468.954,152.945 464.645,157.06C462.24,159.357 462.179,159.315 459.136,162.499C459.078,162.559 459.082,162.631 459.088,162.714C459.109,163.018 459.121,163.385 459.149,163.675C459.736,169.823 459.404,169.305 459.563,171.707C459.898,176.862 458.175,180.914 455.268,182.903C451.285,185.628 443.825,189.871 440.177,189.291C433.599,188.245 424.97,186.141 419.09,184.907C418.75,184.841 418.59,184.631 418.61,184.277C418.723,182.531 416.757,180.755 417.75,178.141C417.85,177.868 418.047,177.761 418.34,177.821C420.453,178.248 420.724,177.827 422.844,178.32C424.038,178.6 426.857,180.84 427.61,180.22C427.797,180.06 427.897,179.86 427.91,179.62Z" style="fill:rgb(27,20,100);fill-rule:nonzero;stroke:rgb(27,20,100);stroke-width:0.91px;stroke-linecap:butt;stroke-miterlimit:2;"/>
                    </g>
                </g>
                <g transform="matrix(1.06306,0,0,1.06306,695.605,-68.3091)">
                    <path d="M63.96,170.92C63.23,173.76 63.44,176.15 67.07,176.09C70.457,176.043 73.527,175.683 76.28,175.01C76.807,174.883 77.007,175.083 76.88,175.61L76.11,178.93C75.852,180.024 74.994,180.882 73.9,181.14C68.327,182.453 62.943,183.5 57.75,184.28C53.23,184.96 45.87,185.18 42.12,182.01C36.11,176.93 39.73,166.69 43.08,160.93C49.71,149.53 61.81,142.92 74.93,140.62C77.917,140.1 80.9,139.627 83.88,139.2C85.013,139.04 85.397,139.5 85.03,140.58C84.603,141.84 84.323,143.09 84.19,144.33C84.09,145.21 83.61,145.74 82.75,145.92C80.91,146.313 79.077,146.69 77.25,147.05C71.76,148.13 68.6,153.68 67.09,159.14C66.01,163.06 64.967,166.987 63.96,170.92Z" style="fill:url(#_Linear2);fill-rule:nonzero;"/>
                    <path d="M66.477,173.226C66.5,172.86 66.561,172.137 66.693,171.623C66.693,171.622 66.694,171.621 66.694,171.62C67.696,167.704 68.735,163.794 69.81,159.892C71.039,155.448 73.326,150.698 77.795,149.819C77.795,149.819 77.795,149.819 77.796,149.819C79.637,149.456 81.485,149.076 83.34,148.68C85.513,148.225 86.74,146.885 86.994,144.649C86.995,144.643 86.995,144.637 86.996,144.632C87.108,143.591 87.345,142.543 87.703,141.485C88.322,139.662 87.833,138.396 87.185,137.618C86.542,136.846 85.388,136.137 83.486,136.406C83.484,136.406 83.482,136.406 83.48,136.406C80.472,136.837 77.461,137.315 74.446,137.84C74.445,137.84 74.444,137.84 74.443,137.84C60.497,140.285 47.688,147.394 40.641,159.511C38.422,163.326 36.148,168.937 36.075,174.014C36.019,177.941 37.219,181.562 40.298,184.165C42.156,185.736 44.702,186.699 47.48,187.159C51.145,187.765 55.214,187.515 58.17,187.071C63.436,186.28 68.895,185.219 74.547,183.887C76.681,183.384 78.354,181.711 78.857,179.577L79.629,176.249C80,174.675 79.42,173.669 78.82,173.07C78.218,172.467 77.206,171.885 75.62,172.266C75.617,172.267 75.613,172.268 75.61,172.269C73.045,172.896 70.185,173.225 67.031,173.268C67.029,173.268 67.026,173.268 67.023,173.268C66.847,173.271 66.638,173.249 66.477,173.226ZM63.96,170.92C63.23,173.76 63.44,176.15 67.07,176.09C70.457,176.043 73.527,175.683 76.28,175.01C76.807,174.883 77.007,175.083 76.88,175.61L76.11,178.93C75.852,180.024 74.994,180.882 73.9,181.14C68.327,182.453 62.943,183.5 57.75,184.28C53.23,184.96 45.87,185.18 42.12,182.01C36.11,176.93 39.73,166.69 43.08,160.93C49.71,149.53 61.81,142.92 74.93,140.62C77.917,140.1 80.9,139.627 83.88,139.2C85.013,139.04 85.397,139.5 85.03,140.58C84.603,141.84 84.323,143.09 84.19,144.33C84.09,145.21 83.61,145.74 82.75,145.92C80.91,146.313 79.077,146.69 77.25,147.05C71.76,148.13 68.6,153.68 67.09,159.14C66.01,163.06 64.967,166.987 63.96,170.92Z" style="fill:rgb(27,20,100);"/>
                </g>
                <g transform="matrix(1.09607,0,0,1.09607,673.941,-71.0064)">
                    <path d="M237.59,163.27L246.55,163.73C247.443,163.777 247.77,164.233 247.53,165.1L246.35,169.3C246.085,170.235 245.216,170.881 244.24,170.87C235.287,170.797 225.073,170.77 213.6,170.79C212.907,170.79 212.11,170.67 211.21,170.43C210.43,170.217 210.14,169.72 210.34,168.94L220.38,130.07C220.68,128.913 221.729,128.099 222.92,128.1L244.72,128.1C244.758,128.1 244.795,128.103 244.832,128.107C245.328,128.17 245.684,128.624 245.623,129.114C245.618,129.153 245.61,129.192 245.6,129.23L237.15,162.68C237.057,163.053 237.203,163.25 237.59,163.27Z" style="fill:url(#_Linear3);fill-rule:nonzero;"/>
                    <path d="M241.025,160.274L248.67,130.012C248.712,129.847 248.744,129.68 248.766,129.511C249.044,127.307 247.459,125.246 245.23,124.964C245.064,124.943 244.897,124.932 244.73,124.932L222.92,124.932C220.294,124.93 217.975,126.722 217.313,129.275L207.271,168.153C206.921,169.521 207.163,170.624 207.672,171.495C208.177,172.36 209.015,173.114 210.374,173.486C210.381,173.488 210.387,173.489 210.394,173.491C211.6,173.813 212.671,173.958 213.6,173.958C213.602,173.958 213.604,173.958 213.606,173.958C225.067,173.938 235.27,173.965 244.214,174.038C246.609,174.065 248.744,172.468 249.398,170.165L250.583,165.945C251.032,164.324 250.653,163.118 250.042,162.264C249.425,161.403 248.401,160.654 246.715,160.566L241.025,160.274ZM237.59,163.27L246.55,163.73C247.443,163.777 247.77,164.233 247.53,165.1L246.35,169.3C246.085,170.235 245.216,170.881 244.24,170.87C235.287,170.797 225.073,170.77 213.6,170.79C212.907,170.79 212.11,170.67 211.21,170.43C210.43,170.217 210.14,169.72 210.34,168.94L220.38,130.07C220.68,128.913 221.729,128.099 222.92,128.1L244.72,128.1C244.758,128.1 244.795,128.103 244.832,128.107C245.328,128.17 245.684,128.624 245.623,129.114C245.618,129.153 245.61,129.192 245.6,129.23L237.15,162.68C237.057,163.053 237.203,163.25 237.59,163.27Z" style="fill:rgb(27,20,100);"/>
                </g>
                <g transform="matrix(1.09607,0,0,1.09607,673.941,-71.0064)">
                    <path d="M274.74,167.74C274.38,169.06 273.88,170.15 273.24,171.01C273.101,171.194 272.885,171.308 272.65,171.32C269.463,171.5 255.03,170.94 250.64,170.83C250.072,170.818 249.612,170.348 249.612,169.78C249.612,169.737 249.615,169.693 249.62,169.65C249.767,168.483 249.99,167.307 250.29,166.12C253.25,154.367 256.353,142.503 259.6,130.53C259.94,129.29 260.753,128.63 262.04,128.55C263.74,128.45 265.51,128.47 267.35,128.61C272.99,129.037 278.16,129.183 282.86,129.05C282.925,129.048 282.991,129.05 283.056,129.057C283.831,129.137 284.402,129.845 284.321,130.625C284.315,130.687 284.304,130.749 284.29,130.81C281.323,142.937 278.14,155.247 274.74,167.74Z" style="fill:url(#_Linear4);fill-rule:nonzero;"/>
                    <path d="M277.796,168.574C277.797,168.573 277.797,168.572 277.797,168.572C281.204,156.052 284.394,143.715 287.367,131.563C287.369,131.556 287.371,131.55 287.372,131.543C287.419,131.348 287.452,131.15 287.473,130.951C287.733,128.435 285.879,126.163 283.382,125.905C283.17,125.883 282.958,125.876 282.745,125.884C278.17,126.014 273.109,125.869 267.589,125.451C265.603,125.3 263.69,125.279 261.854,125.387C261.85,125.388 261.847,125.388 261.843,125.388C259.048,125.562 257.283,126.998 256.545,129.692C256.544,129.695 256.543,129.698 256.542,129.701C253.291,141.693 250.182,153.575 247.218,165.346C246.886,166.658 246.639,167.962 246.477,169.255C246.477,169.256 246.476,169.256 246.476,169.257C246.455,169.431 246.444,169.605 246.444,169.78C246.444,172.061 248.294,173.95 250.574,173.997C254.999,174.108 269.587,174.664 272.823,174.483C273.997,174.42 275.072,173.84 275.768,172.92C275.772,172.914 275.777,172.908 275.782,172.901C276.631,171.76 277.319,170.325 277.796,168.574ZM274.74,167.74C274.38,169.06 273.88,170.15 273.24,171.01C273.101,171.194 272.885,171.308 272.65,171.32C269.463,171.5 255.03,170.94 250.64,170.83C250.072,170.818 249.612,170.348 249.612,169.78C249.612,169.737 249.615,169.693 249.62,169.65C249.767,168.483 249.99,167.307 250.29,166.12C253.25,154.367 256.353,142.503 259.6,130.53C259.94,129.29 260.753,128.63 262.04,128.55C263.74,128.45 265.51,128.47 267.35,128.61C272.99,129.037 278.16,129.183 282.86,129.05C282.925,129.048 282.991,129.05 283.056,129.057C283.831,129.137 284.402,129.845 284.321,130.625C284.315,130.687 284.304,130.749 284.29,130.81C281.323,142.937 278.14,155.247 274.74,167.74Z" style="fill:rgb(27,20,100);"/>
                </g>
                <g transform="matrix(1.09607,0,0,1.09607,673.941,-71.0064)">
                    <path d="M304.504,168.92C304.966,169.039 306.175,169.049 306.67,169.09C308.45,169.236 309.483,168.95 309.95,167.23L315.25,147.7C315.535,146.664 316.545,146.045 317.61,146.14C320.193,146.371 322.79,146.626 325.61,146.87C329.354,147.194 332.723,147.387 335.69,147.86C335.708,147.863 335.726,147.866 335.744,147.87C336.355,148 336.753,148.606 336.624,149.212C336.62,149.232 336.615,149.251 336.61,149.27C334.817,155.91 332.973,162.503 331.08,169.05C330.06,172.59 326.018,173.173 322.911,173.652C319.046,174.248 315.06,174.63 311.3,174.31C302.21,173.54 284,171.45 282.75,159.27C281.4,146.04 290.99,133.6 303.81,130.97C307.31,130.25 310.73,129.96 314.07,130.1C321.277,130.4 329.54,131.21 338.86,132.53C338.993,132.55 339.043,132.627 339.01,132.76L337.28,139.8C337.253,139.907 337.187,139.953 337.08,139.94C333.29,139.49 329.45,139.32 325.69,138.87C321.49,138.377 316.388,138.177 311.914,138.27C311.334,138.283 310.958,138.57 310.784,139.13C310.154,141.14 304.964,159.753 303.064,167.16C302.751,168.393 303.27,168.602 304.504,168.92Z" style="fill:url(#_Linear5);fill-rule:nonzero;"/>
                    <path d="M307.018,165.937L306.662,165.914C308.554,158.733 312.145,145.818 313.413,141.418C317.366,141.392 321.691,141.59 325.32,142.016C329.074,142.466 332.915,142.636 336.706,143.086C337.658,143.205 338.42,142.935 339.027,142.51C339.609,142.103 340.121,141.5 340.353,140.568L342.087,133.516C342.367,132.393 342.077,131.525 341.651,130.872C341.209,130.194 340.509,129.574 339.33,129.397C339.321,129.396 339.313,129.394 339.304,129.393C329.867,128.057 321.5,127.238 314.202,126.935C310.612,126.784 306.935,127.093 303.173,127.867C288.809,130.814 278.086,144.768 279.598,159.592C279.598,159.592 279.598,159.593 279.598,159.593C280.214,165.588 284.026,169.705 289.265,172.417C296.026,175.918 305.258,176.978 311.032,177.467C315.035,177.807 319.279,177.418 323.394,176.783C325.191,176.506 327.25,176.165 329.016,175.415C331.413,174.397 333.323,172.706 334.124,169.927C336.022,163.366 337.87,156.754 339.669,150.096L339.723,149.871C340.211,147.572 338.722,145.264 336.402,144.771L336.189,144.731C333.156,144.248 329.711,144.045 325.883,143.714C323.066,143.47 320.472,143.215 317.892,142.984C315.299,142.753 312.89,144.337 312.196,146.859L307.018,165.937ZM304.504,168.92C304.966,169.039 306.175,169.049 306.67,169.09C308.45,169.236 309.483,168.95 309.95,167.23L315.25,147.7C315.535,146.664 316.545,146.045 317.61,146.14C320.193,146.371 322.79,146.626 325.61,146.87C329.354,147.194 332.723,147.387 335.69,147.86C335.708,147.863 335.726,147.866 335.744,147.87C336.355,148 336.753,148.606 336.624,149.212C336.62,149.232 336.615,149.251 336.61,149.27C334.817,155.91 332.973,162.503 331.08,169.05C330.06,172.59 326.018,173.173 322.911,173.652C319.046,174.248 315.06,174.63 311.3,174.31C302.21,173.54 284,171.45 282.75,159.27C281.4,146.04 290.99,133.6 303.81,130.97C307.31,130.25 310.73,129.96 314.07,130.1C321.277,130.4 329.54,131.21 338.86,132.53C338.993,132.55 339.043,132.627 339.01,132.76L337.28,139.8C337.253,139.907 337.187,139.953 337.08,139.94C333.29,139.49 329.45,139.32 325.69,138.87C321.49,138.377 316.388,138.177 311.914,138.27C311.334,138.283 310.958,138.57 310.784,139.13C310.154,141.14 304.964,159.753 303.064,167.16C302.751,168.393 303.27,168.602 304.504,168.92Z" style="fill:rgb(27,20,100);"/>
                </g>
                <g transform="matrix(1.09607,0,0,1.09607,674.941,-71.0064)">
                    <path d="M427.91,179.62C428.09,175.487 428.007,171.477 427.66,167.59C427.527,166.063 427.52,164.507 427.64,162.92C427.8,160.86 427.82,158.61 428.51,156.79C430.383,151.857 434.22,150.07 440.02,151.43C442.46,152.003 447.023,153.75 453.71,156.67C454.377,156.963 454.633,157.467 454.48,158.18L453.28,163.61C453.1,164.443 452.63,164.667 451.87,164.28C450.43,163.553 448.84,163.023 447.1,162.69C447.067,162.683 447.033,162.679 446.999,162.676C446.556,162.644 446.164,162.986 446.132,163.435C446.129,163.466 446.129,163.498 446.13,163.53C446.37,168.223 446.637,172.787 446.93,177.22C447.51,186.15 445.45,193.43 434.71,190.89C428.497,189.423 422.45,188.073 416.57,186.84C416.23,186.773 416.07,186.563 416.09,186.21C416.203,184.463 416.757,182.283 417.75,179.67C417.85,179.397 418.047,179.29 418.34,179.35C420.453,179.777 422.57,180.237 424.69,180.73C425.883,181.01 426.857,180.84 427.61,180.22C427.797,180.06 427.897,179.86 427.91,179.62Z" style="fill:url(#_Linear6);fill-rule:nonzero;"/>
                    <path d="M424.81,177.507C422.86,177.058 420.912,176.637 418.967,176.245C417.967,176.04 417.138,176.234 416.462,176.6C415.762,176.98 415.148,177.584 414.787,178.549C413.656,181.525 413.058,184.016 412.929,186.005C412.928,186.014 412.927,186.022 412.927,186.031C412.867,187.098 413.192,187.918 413.675,188.552C414.171,189.203 414.885,189.731 415.932,189.943C421.783,191.171 427.8,192.514 433.982,193.973C439.603,195.303 443.365,194.27 445.858,192.171C449.342,189.239 450.516,183.547 450.091,177.015C450.091,177.013 450.091,177.012 450.091,177.011C449.868,173.638 449.66,170.19 449.469,166.667C449.802,166.801 450.127,166.949 450.443,167.108C451.953,167.877 453.212,167.711 454.152,167.264C455.092,166.817 456.017,165.946 456.377,164.279C456.373,164.294 457.573,158.864 457.573,158.864C457.575,158.858 457.576,158.852 457.577,158.846C457.832,157.663 457.651,156.663 457.225,155.828C456.798,154.992 456.094,154.258 454.986,153.77C454.983,153.769 454.981,153.768 454.978,153.767C448.03,150.733 443.28,148.942 440.745,148.346C440.744,148.346 440.744,148.346 440.743,148.346C437.014,147.471 433.922,147.729 431.455,148.878C428.845,150.093 426.823,152.31 425.548,155.665C425.548,155.666 425.548,155.666 425.548,155.667C424.758,157.751 424.665,160.316 424.481,162.675C424.481,162.677 424.481,162.679 424.481,162.681C424.348,164.443 424.356,166.171 424.504,167.866C424.504,167.868 424.504,167.87 424.504,167.871C424.784,171.001 424.885,174.212 424.81,177.507ZM427.91,179.62C428.09,175.487 428.007,171.477 427.66,167.59C427.527,166.063 427.52,164.507 427.64,162.92C427.8,160.86 427.82,158.61 428.51,156.79C430.383,151.857 434.22,150.07 440.02,151.43C442.46,152.003 447.023,153.75 453.71,156.67C454.377,156.963 454.633,157.467 454.48,158.18L453.28,163.61C453.1,164.443 452.63,164.667 451.87,164.28C450.43,163.553 448.84,163.023 447.1,162.69C447.067,162.683 447.033,162.679 446.999,162.676C446.556,162.644 446.164,162.986 446.132,163.435C446.129,163.466 446.129,163.498 446.13,163.53C446.37,168.223 446.637,172.787 446.93,177.22C447.51,186.15 445.45,193.43 434.71,190.89C428.497,189.423 422.45,188.073 416.57,186.84C416.23,186.773 416.07,186.563 416.09,186.21C416.203,184.463 416.757,182.283 417.75,179.67C417.85,179.397 418.047,179.29 418.34,179.35C420.453,179.777 422.57,180.237 424.69,180.73C425.883,181.01 426.857,180.84 427.61,180.22C427.797,180.06 427.897,179.86 427.91,179.62Z" style="fill:rgb(27,20,100);"/>
                </g>
                <g transform="matrix(1.06306,0,0,1.06306,695.022,-68.3091)">
                    <path d="M91.62,138.53L110.29,135.51C110.348,135.501 110.406,135.496 110.464,135.496C111.078,135.496 111.584,136.002 111.584,136.616C111.584,136.709 111.573,136.801 111.55,136.89C108.497,149.003 105.403,161.103 102.27,173.19C101.923,174.53 101.39,175.713 100.67,176.74C100.477,177.02 100.21,177.183 99.87,177.23L80.57,179.87C80.533,179.875 80.496,179.877 80.458,179.877C80.02,179.876 79.66,179.518 79.661,179.085C79.661,179.046 79.664,179.008 79.67,178.97C79.863,177.603 80.127,176.263 80.46,174.95C82.767,165.937 84.973,157.1 87.08,148.44C87.733,145.733 88.467,143.103 89.28,140.55C89.616,139.491 90.523,138.708 91.62,138.53Z" style="fill:url(#_Linear7);fill-rule:nonzero;"/>
                    <path d="M91.169,135.744C91.169,135.744 91.169,135.744 91.169,135.744C89.022,136.092 87.247,137.624 86.59,139.697C85.758,142.309 85.007,145.002 84.338,147.774C82.234,156.423 80.03,165.249 77.726,174.25C77.726,174.252 77.725,174.254 77.725,174.256C77.367,175.666 77.084,177.104 76.876,178.571C76.852,178.738 76.84,178.906 76.839,179.075C76.832,181.046 78.452,182.692 80.449,182.699C80.616,182.7 80.783,182.689 80.949,182.666L100.254,180.026C101.415,179.866 102.325,179.306 102.987,178.352C103.89,177.062 104.567,175.579 105.002,173.897C108.137,161.805 111.232,149.699 114.286,137.58C114.286,137.58 114.287,137.579 114.287,137.579C114.366,137.265 114.406,136.941 114.406,136.616C114.406,134.454 112.626,132.674 110.464,132.674C110.259,132.674 110.054,132.69 109.852,132.722L91.169,135.744ZM91.62,138.53L110.29,135.51C110.348,135.501 110.406,135.496 110.464,135.496C111.078,135.496 111.584,136.002 111.584,136.616C111.584,136.709 111.573,136.801 111.55,136.89C108.497,149.003 105.403,161.103 102.27,173.19C101.923,174.53 101.39,175.713 100.67,176.74C100.477,177.02 100.21,177.183 99.87,177.23L80.57,179.87C80.533,179.875 80.496,179.877 80.458,179.877C80.02,179.876 79.66,179.518 79.661,179.085C79.661,179.046 79.664,179.008 79.67,178.97C79.863,177.603 80.127,176.263 80.46,174.95C82.767,165.937 84.973,157.1 87.08,148.44C87.733,145.733 88.467,143.103 89.28,140.55C89.616,139.491 90.523,138.708 91.62,138.53Z" style="fill:rgb(27,20,100);"/>
                </g>
                <g transform="matrix(1.09607,0,0,1.09607,673.941,-71.0064)">
                    <path d="M364.35,151.56C364.31,151.727 364.377,151.823 364.55,151.85L369.7,152.66C369.807,152.68 369.873,152.637 369.9,152.53L373.38,139.13C373.604,138.257 374.476,137.696 375.37,137.85L392.883,140.778C393.671,140.913 394.253,141.604 394.253,142.404C394.253,142.54 394.236,142.676 394.203,142.808L385.245,178.965C384.885,180.358 383.995,180.961 382.575,180.775L364.87,178.57C364.845,178.567 364.819,178.562 364.794,178.558C364.029,178.412 363.518,177.666 363.663,176.906C363.668,176.881 363.674,176.855 363.68,176.83L367.59,161.01C367.643,160.777 367.553,160.67 367.32,160.69C365.753,160.797 364.167,160.647 362.56,160.24C362.3,160.173 362.133,160.27 362.06,160.53L357.69,176.08C357.55,176.594 357.109,176.971 356.58,177.03C355.067,177.204 337.58,175.95 335.5,175.3C335.18,175.2 335.023,174.98 335.03,174.64C335.05,173.54 335.19,172.49 335.45,171.49C338.397,160.057 341.353,148.687 344.32,137.38C344.547,136.52 344.863,135.71 345.27,134.95C345.43,134.65 345.68,134.483 346.02,134.45C349.34,134.08 355.132,134.931 356.416,135.089C357.476,135.219 366.222,136.546 367.25,137.01C367.612,137.173 367.827,137.555 367.73,137.94L364.35,151.56Z" style="fill:url(#_Linear8);fill-rule:nonzero;"/>
                    <path d="M360.494,177.606C360.689,179.57 362.16,181.28 364.2,181.67L364.479,181.714L382.18,183.918C383.789,184.126 385.076,183.769 386.086,183.084C387.094,182.401 387.905,181.336 388.313,179.757C388.315,179.747 388.318,179.737 388.321,179.726L397.278,143.57C397.372,143.198 397.421,142.802 397.421,142.404C397.421,140.068 395.722,138.052 393.42,137.656L375.892,134.725C373.869,134.376 371.879,135.35 370.859,137.038C370.629,135.785 369.79,134.681 368.553,134.122C367.437,133.619 357.955,132.086 356.803,131.944C355.431,131.775 349.244,130.908 345.686,131.3C344.231,131.449 343.162,132.171 342.475,133.458C341.954,134.432 341.547,135.47 341.257,136.573C341.256,136.574 341.256,136.575 341.256,136.576C338.288,147.887 335.33,159.262 332.382,170.699C332.063,171.927 331.887,173.222 331.862,174.579C331.844,175.526 332.126,176.285 332.562,176.898C333.008,177.524 333.644,178.039 334.555,178.324C336.763,179.014 355.31,180.36 356.938,180.178C358.505,180.001 359.849,179.009 360.494,177.606ZM364.35,151.56C364.31,151.727 364.377,151.823 364.55,151.85L369.7,152.66C369.807,152.68 369.873,152.637 369.9,152.53L373.38,139.13C373.604,138.257 374.476,137.696 375.37,137.85L392.883,140.778C393.671,140.913 394.253,141.604 394.253,142.404C394.253,142.54 394.236,142.676 394.203,142.808L385.245,178.965C384.885,180.358 383.995,180.961 382.575,180.775L364.87,178.57C364.845,178.567 364.819,178.562 364.794,178.558C364.029,178.412 363.518,177.666 363.663,176.906C363.668,176.881 363.674,176.855 363.68,176.83L367.59,161.01C367.643,160.777 367.553,160.67 367.32,160.69C365.753,160.797 364.167,160.647 362.56,160.24C362.3,160.173 362.133,160.27 362.06,160.53L357.69,176.08C357.55,176.594 357.109,176.971 356.58,177.03C355.067,177.204 337.58,175.95 335.5,175.3C335.18,175.2 335.023,174.98 335.03,174.64C335.05,173.54 335.19,172.49 335.45,171.49C338.397,160.057 341.353,148.687 344.32,137.38C344.547,136.52 344.863,135.71 345.27,134.95C345.43,134.65 345.68,134.483 346.02,134.45C349.34,134.08 355.132,134.931 356.416,135.089C357.476,135.219 366.222,136.546 367.25,137.01C367.612,137.173 367.827,137.555 367.73,137.94L364.35,151.56Z" style="fill:rgb(27,20,100);"/>
                </g>
                <g transform="matrix(1.06306,0,0,1.06306,695.605,-68.3091)">
                    <path d="M183.3,142.95L192.57,130.13C192.85,129.737 193.233,129.54 193.72,129.54L198.71,129.54C199.263,129.54 199.38,129.763 199.06,130.21L183.79,151.51C183.532,151.874 183.339,152.276 183.22,152.7L178.38,170.63C178.145,171.513 177.395,172.176 176.48,172.31C171.28,173.08 156.643,173.493 154.27,173.32C154.251,173.319 154.232,173.317 154.213,173.314C153.8,173.255 153.51,172.862 153.57,172.443C153.573,172.426 153.576,172.408 153.58,172.39C154.653,167.483 155.897,162.557 157.31,157.61C157.777,155.957 157.87,154.38 157.59,152.88C156.61,147.687 155.892,141.993 154.392,135.8C154.145,134.807 154.075,133.83 154.182,132.87C154.275,131.99 154.765,131.547 155.652,131.54C159.752,131.513 174.98,130.6 178.75,130.4C179.197,130.373 179.47,130.577 179.57,131.01L182.28,142.74C182.296,142.804 182.323,142.865 182.36,142.921C182.536,143.186 182.896,143.261 183.156,143.088C183.212,143.051 183.261,143.004 183.3,142.95Z" style="fill:url(#_Linear9);fill-rule:nonzero;"/>
                    <path d="M184.128,136.23L182.753,130.275C182.499,129.177 181.933,128.427 181.24,127.912C180.553,127.401 179.677,127.072 178.555,127.139C174.832,127.337 159.704,128.247 155.631,128.274C155.63,128.274 155.628,128.274 155.627,128.274C154.235,128.284 153.197,128.759 152.428,129.455C151.659,130.151 151.084,131.135 150.935,132.514C150.788,133.843 150.878,135.195 151.217,136.57C152.703,142.704 153.41,148.343 154.38,153.486C154.571,154.508 154.487,155.587 154.167,156.721C152.735,161.731 151.476,166.722 150.389,171.692L150.337,171.978C150.02,174.181 151.572,176.234 153.747,176.547C153.845,176.561 153.944,176.572 154.043,176.579C156.527,176.755 171.59,176.335 176.954,175.542C179.166,175.218 180.968,173.606 181.536,171.471C181.534,171.481 186.367,153.577 186.367,153.577C186.384,153.518 186.412,153.462 186.447,153.411C186.453,153.402 201.715,132.113 201.715,132.113C201.715,132.113 201.715,132.113 201.715,132.112C202.915,130.438 202.545,129.032 202.108,128.195C201.678,127.372 200.749,126.274 198.71,126.274L193.72,126.274C192.113,126.274 190.849,126.925 189.921,128.218L184.128,136.23ZM183.3,142.95L192.57,130.13C192.85,129.737 193.233,129.54 193.72,129.54L198.71,129.54C199.263,129.54 199.38,129.763 199.06,130.21L183.79,151.51C183.532,151.874 183.339,152.276 183.22,152.7L178.38,170.63C178.145,171.513 177.395,172.176 176.48,172.31C171.28,173.08 156.643,173.493 154.27,173.32C154.251,173.319 154.232,173.317 154.213,173.314C153.8,173.255 153.51,172.862 153.57,172.443C153.573,172.426 153.576,172.408 153.58,172.39C154.653,167.483 155.897,162.557 157.31,157.61C157.777,155.957 157.87,154.38 157.59,152.88C156.61,147.687 155.892,141.993 154.392,135.8C154.145,134.807 154.075,133.83 154.182,132.87C154.275,131.99 154.765,131.547 155.652,131.54C159.752,131.513 174.98,130.6 178.75,130.4C179.197,130.373 179.47,130.577 179.57,131.01L182.28,142.74C182.296,142.804 182.323,142.865 182.36,142.921C182.536,143.186 182.896,143.261 183.156,143.088C183.212,143.051 183.261,143.004 183.3,142.95Z" style="fill:rgb(27,20,100);"/>
                </g>
                <g transform="matrix(1.06306,0,0,1.06306,695.605,-68.3091)">
                    <path d="M118.77,141.05L114,141.78C113.06,141.92 112.71,141.53 112.95,140.61L113.98,136.55C114.24,135.55 114.883,134.99 115.91,134.87C125.73,133.73 147.578,131.108 150.552,131.235C150.958,131.248 151.091,131.647 150.991,132.04L149.701,137.08C149.614,137.427 149.398,137.643 149.051,137.73C147.178,138.197 146.3,138.373 144.36,138.26C143.969,138.237 143.613,138.493 143.51,138.87C140.923,148.417 138.45,157.9 136.09,167.32C135.61,169.2 134.74,174.02 132.27,174.17C126.857,174.497 112.98,175.89 111.52,175.77C111.167,175.743 111.007,175.553 111.04,175.2C111.153,174.113 111.343,173.037 111.61,171.97C114.09,161.963 116.653,151.85 119.3,141.63C119.31,141.592 119.315,141.553 119.315,141.514C119.315,141.256 119.102,141.044 118.845,141.044C118.82,141.044 118.795,141.046 118.77,141.05Z" style="fill:url(#_Linear10);fill-rule:nonzero;"/>
                    <path d="M115.675,144.378C113.343,153.428 111.074,162.402 108.871,171.291C108.573,172.482 108.36,173.689 108.233,174.907C108.232,174.916 108.231,174.926 108.23,174.935C108.127,176.033 108.479,176.835 108.976,177.425C109.475,178.017 110.207,178.501 111.308,178.584C112.777,178.705 126.923,177.32 132.44,176.987C132.44,176.987 132.441,176.987 132.441,176.987C134.008,176.892 135.363,176.057 136.39,174.62C137.719,172.759 138.43,169.561 138.824,168.018C138.825,168.014 138.826,168.01 138.827,168.006C141.059,159.098 143.393,150.133 145.828,141.113C147.133,141.081 148.121,140.87 149.733,140.468C149.734,140.468 149.735,140.468 149.735,140.468C151.177,140.107 152.078,139.206 152.439,137.764C152.435,137.78 153.725,132.74 153.725,132.74C153.725,132.738 153.726,132.737 153.726,132.735C154.016,131.594 153.732,130.47 153.169,129.718C152.618,128.983 151.803,128.454 150.65,128.414C147.555,128.299 125.506,130.915 115.585,132.067C115.584,132.067 115.583,132.067 115.582,132.067C113.277,132.337 111.833,133.594 111.249,135.84L110.215,139.916C109.775,141.601 110.284,142.755 110.932,143.477C111.581,144.2 112.674,144.831 114.416,144.571L115.675,144.378ZM118.77,141.05L114,141.78C113.06,141.92 112.71,141.53 112.95,140.61L113.98,136.55C114.24,135.55 114.883,134.99 115.91,134.87C125.73,133.73 147.578,131.108 150.552,131.235C150.958,131.248 151.091,131.647 150.991,132.04L149.701,137.08C149.614,137.427 149.398,137.643 149.051,137.73C147.178,138.197 146.3,138.373 144.36,138.26C143.969,138.237 143.613,138.493 143.51,138.87C140.923,148.417 138.45,157.9 136.09,167.32C135.61,169.2 134.74,174.02 132.27,174.17C126.857,174.497 112.98,175.89 111.52,175.77C111.167,175.743 111.007,175.553 111.04,175.2C111.153,174.113 111.343,173.037 111.61,171.97C114.09,161.963 116.653,151.85 119.3,141.63C119.31,141.592 119.315,141.553 119.315,141.514C119.315,141.256 119.102,141.044 118.845,141.044C118.82,141.044 118.795,141.046 118.77,141.05Z" style="fill:rgb(27,20,100);"/>
                </g>
                <g transform="matrix(1.09607,0,0,1.09607,674.941,-71.0064)">
                    <path d="M420.69,154.14L413.28,184.32C413.087,185.113 412.583,185.527 411.77,185.57C410.498,185.638 407.208,185.011 404.82,184.56C402.842,184.186 401.547,183.865 399.83,183.58C397.966,183.27 394.727,182.683 394.06,182.44C393.548,182.253 393.242,181.715 393.37,181.18L401.14,149.85C401.149,149.811 401.154,149.771 401.154,149.731C401.154,149.487 400.979,149.276 400.74,149.23L396.24,148.3C395.653,148.18 395.437,147.83 395.59,147.25L396.77,142.68C396.983,141.853 397.503,141.537 398.33,141.73L425.96,148.13C426.789,148.322 427.316,149.159 427.13,149.99L426.3,153.63C426.127,154.403 425.653,154.703 424.88,154.53L421.36,153.73C421,153.65 420.777,153.787 420.69,154.14Z" style="fill:url(#_Linear11);fill-rule:nonzero;"/>
                    <path d="M397.399,151.775L390.295,180.417C390.293,180.426 390.291,180.434 390.289,180.443C389.785,182.549 390.957,184.68 392.973,185.416C393.706,185.684 397.261,186.365 399.311,186.705C401.005,186.987 402.282,187.305 404.232,187.673C406.877,188.173 410.529,188.809 411.939,188.734C414.32,188.607 415.792,187.393 416.358,185.07L423.155,157.387L424.187,157.621C425.571,157.932 426.664,157.648 427.511,157.111C428.358,156.574 429.081,155.706 429.391,154.323C429.389,154.334 430.219,150.694 430.219,150.694C430.22,150.69 430.221,150.686 430.222,150.681C430.785,148.164 429.189,145.627 426.676,145.044L399.045,138.644C397.661,138.32 396.547,138.584 395.672,139.117C394.804,139.645 394.058,140.509 393.702,141.888C393.703,141.888 392.523,146.458 392.523,146.458C392.176,147.768 392.448,148.814 392.944,149.615C393.441,150.419 394.258,151.128 395.605,151.404L397.399,151.775ZM420.69,154.14L413.28,184.32C413.087,185.113 412.583,185.527 411.77,185.57C410.498,185.638 407.208,185.011 404.82,184.56C402.842,184.186 401.547,183.865 399.83,183.58C397.966,183.27 394.727,182.683 394.06,182.44C393.548,182.253 393.242,181.715 393.37,181.18L401.14,149.85C401.149,149.811 401.154,149.771 401.154,149.731C401.154,149.487 400.979,149.276 400.74,149.23L396.24,148.3C395.653,148.18 395.437,147.83 395.59,147.25L396.77,142.68C396.983,141.853 397.503,141.537 398.33,141.73L425.96,148.13C426.789,148.322 427.316,149.159 427.13,149.99L426.3,153.63C426.127,154.403 425.653,154.703 424.88,154.53L421.36,153.73C421,153.65 420.777,153.787 420.69,154.14Z" style="fill:rgb(27,20,100);"/>
                </g>
            </g>
        </g>
    </g>
    <defs>
        <linearGradient id="_Linear1" x1="0" y1="0" x2="1" y2="0" gradientUnits="userSpaceOnUse" gradientTransform="matrix(0.663057,-48.0802,7.00773,0.0966411,246.973,238.988)"><stop offset="0" style="stop-color:rgb(239,153,43);stop-opacity:1"/><stop offset="1" style="stop-color:rgb(252,235,10);stop-opacity:1"/></linearGradient>
        <linearGradient id="_Linear2" x1="0" y1="0" x2="1" y2="0" gradientUnits="userSpaceOnUse" gradientTransform="matrix(2.45837e-15,-40.1482,38.5183,2.35857e-15,243.283,187.339)"><stop offset="0" style="stop-color:rgb(238,143,47);stop-opacity:1"/><stop offset="1" style="stop-color:rgb(252,235,10);stop-opacity:1"/></linearGradient>
        <linearGradient id="_Linear3" x1="0" y1="0" x2="1" y2="0" gradientUnits="userSpaceOnUse" gradientTransform="matrix(2.38434e-15,-38.9393,37.3584,2.28754e-15,255.722,184.159)"><stop offset="0" style="stop-color:rgb(238,143,47);stop-opacity:1"/><stop offset="1" style="stop-color:rgb(252,235,10);stop-opacity:1"/></linearGradient>
        <linearGradient id="_Linear4" x1="0" y1="0" x2="1" y2="0" gradientUnits="userSpaceOnUse" gradientTransform="matrix(2.38434e-15,-38.9393,37.3584,2.28754e-15,255.722,184.159)"><stop offset="0" style="stop-color:rgb(238,143,47);stop-opacity:1"/><stop offset="1" style="stop-color:rgb(252,235,10);stop-opacity:1"/></linearGradient>
        <linearGradient id="_Linear5" x1="0" y1="0" x2="1" y2="0" gradientUnits="userSpaceOnUse" gradientTransform="matrix(2.38434e-15,-38.9393,37.3584,2.28754e-15,255.722,184.159)"><stop offset="0" style="stop-color:rgb(238,143,47);stop-opacity:1"/><stop offset="1" style="stop-color:rgb(252,235,10);stop-opacity:1"/></linearGradient>
        <linearGradient id="_Linear6" x1="0" y1="0" x2="1" y2="0" gradientUnits="userSpaceOnUse" gradientTransform="matrix(2.38434e-15,-38.9393,37.3584,2.28754e-15,254.81,184.159)"><stop offset="0" style="stop-color:rgb(238,143,47);stop-opacity:1"/><stop offset="1" style="stop-color:rgb(252,235,10);stop-opacity:1"/></linearGradient>
        <linearGradient id="_Linear7" x1="0" y1="0" x2="1" y2="0" gradientUnits="userSpaceOnUse" gradientTransform="matrix(2.45837e-15,-40.1482,38.5183,2.35857e-15,243.831,187.339)"><stop offset="0" style="stop-color:rgb(238,143,47);stop-opacity:1"/><stop offset="1" style="stop-color:rgb(252,235,10);stop-opacity:1"/></linearGradient>
        <linearGradient id="_Linear8" x1="0" y1="0" x2="1" y2="0" gradientUnits="userSpaceOnUse" gradientTransform="matrix(2.38434e-15,-38.9393,37.3584,2.28754e-15,255.722,184.159)"><stop offset="0" style="stop-color:rgb(238,143,47);stop-opacity:1"/><stop offset="1" style="stop-color:rgb(252,235,10);stop-opacity:1"/></linearGradient>
        <linearGradient id="_Linear9" x1="0" y1="0" x2="1" y2="0" gradientUnits="userSpaceOnUse" gradientTransform="matrix(2.45837e-15,-40.1482,38.5183,2.35857e-15,243.283,187.339)"><stop offset="0" style="stop-color:rgb(238,143,47);stop-opacity:1"/><stop offset="1" style="stop-color:rgb(252,235,10);stop-opacity:1"/></linearGradient>
        <linearGradient id="_Linear10" x1="0" y1="0" x2="1" y2="0" gradientUnits="userSpaceOnUse" gradientTransform="matrix(2.45837e-15,-40.1482,38.5183,2.35857e-15,243.283,187.339)"><stop offset="0" style="stop-color:rgb(238,143,47);stop-opacity:1"/><stop offset="1" style="stop-color:rgb(252,235,10);stop-opacity:1"/></linearGradient>
        <linearGradient id="_Linear11" x1="0" y1="0" x2="1" y2="0" gradientUnits="userSpaceOnUse" gradientTransform="matrix(2.38434e-15,-38.9393,37.3584,2.28754e-15,254.81,184.159)"><stop offset="0" style="stop-color:rgb(238,143,47);stop-opacity:1"/><stop offset="1" style="stop-color:rgb(252,235,10);stop-opacity:1"/></linearGradient>
    </defs>
</svg>
