<?xml version="1.0" encoding="UTF-8"?>
<svg id="Layer_1" data-name="Layer 1" xmlns="http://www.w3.org/2000/svg" xmlns:xlink="http://www.w3.org/1999/xlink" viewBox="0 0 500 500">
  <defs>
    <style>
      .cls-1 {
        fill: url(#New_Gradient_Swatch_2);
      }

      .cls-1, .cls-2, .cls-3, .cls-4 {
        stroke-width: 0px;
      }

      .cls-5 {
        clip-path: url(#clippath);
      }

      .cls-2 {
        fill: none;
      }

      .cls-3 {
        fill: #1b1464;
      }

      .cls-4 {
        fill: #662d91;
      }
    </style>
    <clipPath id="clippath">
      <path class="cls-2" d="M250,62.63c-98.66,0-178.64,79.98-178.64,178.64s79.98,178.64,178.64,178.64,178.64-79.98,178.64-178.64S348.66,62.63,250,62.63Z"/>
    </clipPath>
    <linearGradient id="New_Gradient_Swatch_2" data-name="New Gradient Swatch 2" x1="250" y1="506.02" x2="250" y2="34.15" gradientUnits="userSpaceOnUse">
      <stop offset="0" stop-color="#ed1e79"/>
      <stop offset=".11" stop-color="#ee2e70"/>
      <stop offset=".32" stop-color="#f15958"/>
      <stop offset=".63" stop-color="#f79f33"/>
      <stop offset="1" stop-color="#fefe00"/>
      <stop offset="1" stop-color="#ff0"/>
    </linearGradient>
  </defs>
  <path class="cls-3" d="M250,49.45c-105.94,0-191.82,85.88-191.82,191.82s85.88,191.82,191.82,191.82,191.82-85.88,191.82-191.82S355.94,49.45,250,49.45Z"/>
  <path class="cls-4" d="M250,62.63c-98.66,0-178.64,79.98-178.64,178.64s79.98,178.64,178.64,178.64,178.64-79.98,178.64-178.64S348.66,62.63,250,62.63Z"/>
  <g class="cls-5">
    <path class="cls-3" d="M352.32,422.35c-136.68,0-273.36,0-410.04,0-.57,0-1.14-.06-1.7,0-3.17.38-4.48-.84-4.36-4.19.21-6.23.06-12.46.06-18.7,0-17.57.09-35.13-.07-52.7-.03-3.49,1.11-4.54,4.5-4.39,5.54.24,11.11-.08,16.66.12,3.05.11,4.17-.74,4.11-3.97-.19-10.88.04-21.76-.14-32.64-.05-3.22,1.14-4.11,4.14-4.08,12.92.1,25.84.1,38.76,0,2.93-.02,4.02.99,3.9,3.97-.2,4.75.04,9.52-.09,14.28-.06,2.38.6,3.44,3.22,3.5,10.02.26,10.02.34,10.02-9.61,0-5.55.14-11.11-.05-16.66-.1-3.03,1.05-3.91,3.97-3.86,8.38.15,16.77-.04,25.16.1,2.78.05,3.88-.83,3.77-3.68-.17-4.53.03-9.07-.06-13.6-.05-2.59.99-3.67,3.62-3.66,14.51.06,29.01.07,43.52-.01,3.08-.02,3.44,1.6,3.43,4.1-.06,16.09.05,32.19-.1,48.28-.03,3.22,1.08,4.13,4.13,4,2.37-.1,3.18-.94,3.15-3.25-.09-6.57.1-13.15-.08-19.72-.08-3.08.94-4.28,4.08-4.18,5.43.17,10.88-.03,16.32.07,2.47.05,3.42-.84,3.38-3.37-.11-7.37.05-14.73-.09-22.1-.05-2.76.86-3.84,3.69-3.83,18.36.07,36.72.07,55.08,0,2.66,0,3.6,1.07,3.54,3.67-.12,4.98.02,9.97-.05,14.96-.03,2.13.73,3.14,2.96,3.07,3.17-.09,6.35-.09,9.52,0,2.27.07,2.93-1,2.91-3.1-.07-6.69.09-13.38-.07-20.06-.07-3.02.83-4.43,4.04-4.16,2.48.21,5-.13,7.47.08,3.21.28,4.36-.81,4.31-4.16-.18-11.44-.08-22.89-.06-34.34,0-4.74.17-4.9,5.04-4.9,19.04,0,38.08-.01,57.12,0,4.6,0,4.71.12,4.71,4.81,0,22.89,0,45.79,0,68.68,0,4.69.02,4.69,4.74,4.71,2.15,0,4.31,0,6.46,0q4.98-.01,4.99-5.18c0-13.6,0-27.2,0-40.8,0-17.68.05-35.36-.04-53.04-.02-3.01.59-4.91,4.1-4.48.44.05,1.28-.04,1.29-.14.4-3.62,5.64-4.11,5.33-8.02-.27-3.32,1.34-4.29,4.23-3.95,3.21.38,4.02-1.07,3.99-4.12-.13-13.83-.07-27.65-.05-41.48,0-4.09.11-4.15,4.96-4.15,4.89,0,4.98.05,4.99,4.12.02,13.83.1,27.65-.06,41.48-.04,3.36,1.13,4.54,4.31,4.15.89-.11,1.81.04,2.72-.02,2.53-.16,3.89.84,3.7,3.52-.14,2.09.97,2.86,2.64,4.21,2.18,1.76,3.44,4.64,6.58,5.65.5.16.39,2.52.39,3.87.02,36.15.01,72.31.02,108.46q0,5.37,5.36,5.38c4.31,0,8.62-.16,12.92.05,2.97.15,3.91-.85,3.89-3.86-.12-18.59-.06-37.17-.06-55.76,0-7.93.07-15.87-.04-23.8-.04-2.59.8-3.78,3.5-3.64,2.6.13,5.22.18,7.82-.01,3.2-.24,4.08,1.17,4.06,4.19-.09,20.17-.06,40.35-.04,60.52,0,7.38-.81,6.81,6.69,6.83,2.38,0,4.77-.11,7.14.03,2.64.16,3.58-.87,3.56-3.54-.11-10.77.08-21.54-.12-32.3-.06-3.44,1.02-4.76,4.45-4.44,2.36.22,4.76-.02,7.14.05,2.02.06,2.85-.8,2.83-2.83-.07-4.76.07-9.52-.04-14.28-.05-2.49.92-3.42,3.4-3.39,7.59.09,15.19.11,22.78,0,2.75-.04,3.55,1.14,3.47,3.68-.12,3.74.03,7.48-.04,11.22-.04,2.02.76,2.9,2.8,2.83,2.6-.08,5.23.15,7.82-.05,3.23-.25,4.4.94,4.34,4.24-.16,9.63.09,19.27-.13,28.9-.08,3.5,1.06,4.52,4.47,4.38,6.9-.27,6.16.57,6.2-6.27.03-4.08.07-8.16-.01-12.24-.05-2.31.87-3.27,3.2-3.26,16.77.04,33.55.05,50.32,0,2.73,0,3.15,1.48,3.15,3.69-.03,10.31.09,20.63-.07,30.94-.05,3.24,1.01,4.4,4.29,4.31,7.02-.19,14.05.03,21.08-.09,2.95-.05,4.06,1.11,3.96,4.02-.14,4.19.02,8.39-.04,12.58-.03,2.12.78,3.1,3,3.07,11.07-.16,8.98,1.33,9.03-8.48.11-23.23.03-46.47.04-69.7,0-4.66.02-4.82,4.69-4.74,2.89.05,3.71-1.11,3.68-3.83-.06-4.9.07-5.02,5-5.09,2.41-.04,3.24-1.02,3.13-3.28-.09-1.92.09-3.86-.03-5.78-.19-2.84.77-4.15,3.86-4,4.3.21,8.62.2,12.92,0,2.92-.13,3.74,1.14,3.7,3.82-.1,6.12-.03,12.24-.03,18.36,0,12.92-.02,25.84.04,38.76,0,1.14-.82,3.05,1.47,3.08,1.84.02,4.01.43,4.48-2.39.2-1.22.58-2.44,1.08-3.57.94-2.12,1.39-3.79-1.23-5.31-1.7-.99-1.69-3.14-.77-4.92.95-1.85,2.86-2.82,4.56-1.95,2.78,1.42,3.86-.13,5.14-1.97.65-.92,1.37-1.82,2.2-2.58,1.33-1.23,1.79-2.29.57-4.03-1.37-1.95-.73-3.97,1.04-5.43,1.72-1.43,3.8-1.39,5.23.2,1.57,1.75,2.77,1.31,4.33.26,1.03-.69,2.15-1.26,3.3-1.74,1.78-.75,3.11-1.42,2.58-3.94-.43-2.09,1.05-3.64,3.11-4.26,1.85-.56,3.63.05,4.36,1.72,1.08,2.46,2.64,2.65,4.88,2.04,1.07-.29,2.26-.24,3.38-.19,1.77.08,2.96-.37,3.55-2.3.62-2.04,2.28-3.17,4.45-2.9,2.15.26,3.5,1.63,3.61,3.85.09,1.72,1.1,2.31,2.53,2.7,1.53.42,3.06.87,4.53,1.45,1.51.6,2.74.66,3.98-.67,1.47-1.58,3.34-1.91,5.25-.78,1.77,1.05,2.44,2.76,1.91,4.68-.5,1.77.15,2.74,1.49,3.7,1.19.85,2.32,1.83,3.35,2.88,1.22,1.24,2.35,1.91,4.15.93,1.87-1.02,3.55-.23,4.81,1.31,1.3,1.59,1.46,3.46.14,5-1.34,1.57-.95,2.76.02,4.21.75,1.12,1.35,2.37,1.86,3.62.68,1.67,1.35,2.91,3.62,2.69,1.83-.18,3.21,1.09,3.71,2.92.47,1.75.27,3.65-1.42,4.52-2.08,1.08-2.1,2.6-1.89,4.52.18,1.57.24,3.19.08,4.75-.29,2.84,2.11,2.92,3.57,3.02,1.63.12.97-1.83.82-2.69-1.17-6.78,4.52-9.32,8.03-13.18.92-1.01,1.83-.19,2.64.5,4.32,3.7,7.48,7.53,6.87,14.09-.76,8.32-.09,16.76-.24,25.14-.05,2.85.98,3.68,3.74,3.7,9.84.05,9.79.13,9.85,9.82.06,8.95-1.17,7.72,7.7,7.8,7.32.06,6.62-.37,6.63,6.61.01,20.4,0,40.8,0,61.2q0,5.17-5.33,5.18c-137.14,0-274.27,0-411.41,0ZM711.2,354.48c.35-.21.7-.42,1.05-.63,0-1.88.1-3.77-.02-5.64-.17-2.6.85-3.79,3.52-3.63,1.92.11,3.85,0,5.77,0,1.51,0,2.32-.7,2.32-2.25,0-10.39,0-20.79,0-31.21-3.88.41-6.29,2.05-6.8,5.89-.12.87-.58,1.71-.96,2.53-.59,1.28-.5,2.28.69,3.26,1.73,1.41,1.93,3.32.91,5.21-1.05,1.96-2.92,2.58-4.94,1.89-1.6-.54-2.53-.13-3.42,1.16-.64.93-1.42,1.76-2.23,2.55-1.7,1.65-3.46,3.01-1.6,5.87.96,1.49-.14,3.31-1.6,4.43-.87.67-1.27,1.23-.39,2.17,2.58,2.79,5.13,5.6,7.7,8.4ZM680.91,304.3c-.06.16-.11.32-.17.48,8.67,4.6,17.33,9.22,26.02,13.79,6.7,3.53,7.44,3.12,9.07-4.41.34-1.55.09-2.3-1.55-2.65-11.13-2.37-22.25-4.81-33.37-7.22ZM663.13,302.15c-4.16-1.22-7.47-.78-10.68-1.09-7.54-.73-15.11-1.2-22.67-1.69-1.25-.08-3.2-.57-3.3,1.35-.13,2.45.29,4.95.66,7.4.18,1.14,1.33,1.13,2.23.95,10.93-2.22,21.86-4.47,33.76-6.91ZM662.83,299.67c-.43-.98-1.2-.93-1.8-1.14-8.82-3.18-17.64-6.33-26.46-9.51-6.16-2.22-6.04-2.21-7.38,4.33-.6,2.94.57,3.98,3.21,4.15,2.82.18,5.63.33,8.45.52,7.95.54,15.91,1.1,23.99,1.66ZM680.93,296.51c1.75.44,2.72-.26,3.74-.61,7.89-2.72,15.77-5.5,23.65-8.26,7.09-2.48,7.02-2.42,3.25-8.81-1.21-2.05-2.16-2.37-4.15-.95-7.44,5.32-14.98,10.49-22.48,15.72-1.25.87-2.47,1.79-4.01,2.91ZM662.21,305.33c-1.46-.89-2.42-.39-3.37-.2-8.32,1.7-16.63,3.42-24.95,5.1-6.73,1.36-6.66,1.3-4.26,7.94.91,2.51,1.92,3.09,4.43,1.74,7.67-4.14,15.46-8.06,23.21-12.06,1.56-.8,3.12-1.59,4.95-2.52ZM663.94,307.54c-.12-.22-.24-.45-.36-.67-8.4,4.35-16.82,8.66-25.2,13.05-7.24,3.79-7.15,3.78-1.69,10,1.18,1.35,1.81,1.25,2.93.2,8.1-7.54,16.21-15.06,24.32-22.59ZM674.44,291.59l.66.24c4.42-10,8.86-20,13.26-30.01.45-1.01,1.07-2.28-.45-2.9-2.5-1.03-5.25-2.57-7.75-1.67-1.81.66-1.22,3.59-1.58,5.54-.12.67-.21,1.34-.31,2.01-1.28,8.93-2.55,17.86-3.83,26.8ZM668.17,311.3c-.22-.05-.45-.11-.67-.17-.21.25-.46.48-.63.76-4.73,7.73-9.47,15.46-14.18,23.2-3.56,5.85-3.05,7.11,3.57,9.19.11.03.21.07.32.11,1.46.54,2.34.14,2.74-1.47.66-2.64,1.47-5.24,2.2-7.85,2.22-7.93,4.44-15.86,6.66-23.79ZM664.36,294.64c.16-.15.31-.3.47-.44-1-1.29-1.98-2.59-3.01-3.85-5.74-7.14-11.5-14.26-17.23-21.4-.94-1.18-2.01-2.16-3.33-.78-1.85,1.95-4.72,3.19-4.9,6.4-.01.22.44.49.71.68,9.09,6.47,18.19,12.93,27.29,19.39ZM671.89,292.72c.1.01.19.02.29.03,1.47-10.07,2.68-20.19,4.5-30.2,1.1-6.02-2.15-6.84-6.26-6.69-2.37.08-3.35.81-2.95,3.56,1.62,11.08,2.98,22.2,4.43,33.3ZM666.53,292.88c.21-.1.41-.2.62-.29-4.31-10.07-8.62-20.15-12.95-30.21-.4-.94-.84-2.06-2.19-1.56-2.36.86-4.5,2.15-6.4,3.79-1.03.89-.46,1.84.22,2.68,6.9,8.53,13.79,17.06,20.69,25.6ZM662.82,296.95c.1-.22.21-.45.31-.67-9.02-6.4-18.04-12.8-27.04-19.22-1.22-.87-2.5-.66-2.67.63-.38,2.8-4.3,4.29-2.7,7.68.11.24.58.32.9.44,10.4,3.72,20.8,7.43,31.2,11.15ZM679.6,306.51c-.08.14-.16.28-.24.41,8.1,7.69,16.24,15.34,24.27,23.1,1.82,1.76,2.98,1.44,4.29-.45.91-1.32,1.5-2.7,1.98-4.24.58-1.88.22-2.77-1.56-3.69-9.62-4.96-19.17-10.07-28.74-15.13ZM678.13,309.58c3.97,6.67,7.86,13.25,11.79,19.81,1.69,2.81,3.41,5.61,5.26,8.31.44.63,1.23,2.24,2.32.9,1.15-1.42,2.67-1.97,4.15-2.76,2-1.08,2.82-2.28.62-4.33-7.46-6.94-14.75-14.05-22.12-21.09-.45-.43-.84-1.1-2.03-.83ZM669.1,291.78c.22-.99.37-1.3.34-1.59-1.37-10.65-2.76-21.29-4.13-31.94-.26-2.01-1.48-1.57-2.73-1.18-1.6.5-2.83,1.97-4.69,1.78-2.66-.26-2.52,1.1-1.74,2.91,1.87,4.37,3.7,8.75,5.58,13.12,2.35,5.45,4.75,10.89,7.37,16.9ZM682,301.83c-.04.21-.08.43-.13.64,10.72,2.29,21.43,4.59,32.15,6.86.69.15,1.82.69,1.73-.67-.12-1.88,1.03-3.16,1.65-4.7,1.16-2.88.16-4.18-2.92-4.05-5.88.26-11.76.52-17.63.86-4.96.29-9.91.7-14.86,1.06ZM681.81,299.01c.05.26.1.51.15.77,10.61-.7,21.22-1.4,31.83-2.08,3.36-.22,4.46-2.03,2.81-4.98-.71-1.26-1.87-2.24-2.31-3.71-.33-1.1-1.28-.75-2-.51-10.16,3.49-20.32,7-30.48,10.51ZM665.7,309.76c-.19-.18-.37-.37-.56-.55-8.25,7.66-16.49,15.32-25.61,23.8,3.16-.33,3.34,1.26,3.69,2.87.4,1.85,2.01,2.71,3.61,3.27,1.09.38,1.5-.82,1.94-1.55,5.66-9.27,11.29-18.56,16.93-27.84ZM676.77,293.15c.18.07.35.14.53.2,6.91-8.39,13.83-16.78,20.74-25.17,1.99-2.42,1.61-3.9-1.42-4.73-1.4-.38-2.98-.26-4.08-1.42-1.32-1.38-1.81-.5-2.35.71-4.46,10.14-8.95,20.27-13.42,30.4ZM678.96,294.57c.14.14.28.27.43.41,8.73-6.07,17.46-12.12,26.17-18.21.7-.49,1.86-1.03,1.3-2.08-.99-1.88-1.21-4.13-2.87-5.71-1.52-1.43-2.66-1.67-4.14.16-6.91,8.52-13.92,16.95-20.89,25.42ZM643.09,362.63c.28.13.56.26.84.4,4.7-4.68,9.41-9.35,14.1-14.05.59-.59,1.14-1.39.02-1.89-1.54-.69-3.14-1.34-4.79-1.7-1.54-.33-1.41,1.48-2.16,2.21-2.16,2.09-5.47,1.6-6.85-1.07-.76-1.47-.54-2.84.24-4.19.34-.59.79-1.19.12-1.8-.22-.21-.67-.41-.9-.32-.79.33-.62,1.12-.62,1.76-.02,6.89,0,13.77,0,20.66ZM660.89,344.86c.29.2.57.41.86.61,2.34-2.4,4.69-4.79,7.03-7.2.86-.88,2-1.68,2.01-3.03.05-7.92.02-15.83.02-23.75-.18-.02-.36-.04-.54-.05-3.13,11.14-6.25,22.28-9.38,33.42ZM619.96,316.32c0,5.09-.02,9.37.01,13.66,0,1.1-.14,2.59,1.28,2.8,2.52.36,5.89,1.39,7.39-.53,1.54-1.98,5.28-4.57,1.62-8.14-.91-.89-1.24-2.38-1.85-3.59-.43-.87-1.05-1.6-2.11-1.22-2.73.98-4.52-.32-6.34-2.96ZM673.25,333.65c2.19-2.39,5.26-3.42,4.67-6.27-1.15-5.58-2.89-11.04-4.39-16.54-.09.02-.19.05-.28.07v22.74ZM676.5,310.89c-.23.09-.47.19-.7.28.85,3.22,1.51,6.5,2.62,9.62.74,2.08-.3,6.11,4.38,4.88.37-.1,1.03.78,1.52,1.24.94.87,1.87,1.76,2.8,2.65.12-.11.24-.21.36-.32-3.66-6.12-7.31-12.24-10.97-18.36ZM619.96,313.8c1.28-1.1,1.87-2.23,3.06-2.4,2.24-.32,2.24-1.71,1.94-3.48-.28-1.66-.43-3.37-.43-5.06,0-2.12-1.46-2.31-2.96-2.43-1.82-.15-1.57,1.28-1.59,2.34-.05,3.5-.02,7-.02,11.02Z"/>
  </g>
  <path class="cls-1" d="M276.87,204.19l28.95-132.66c-16.18-5.32-33.37-8.4-51.21-8.85,0,0,0,0,0,0-1.33-.03-2.66-.05-3.99-.05-.21,0-.41,0-.61,0-.11,0-.21,0-.32,0-1.11,0-2.22.02-3.32.04-1.18.03-2.35.06-3.52.11-.16,0-.32.01-.49.02-1.21.05-2.41.12-3.62.2-.87.05-1.74.12-2.6.19-.17.01-.34.02-.51.04-.09,0-.17.02-.26.02-9.11.74-18.04,2.15-26.71,4.2-7.84,1.86-15.47,4.23-22.87,7.08-1.86,9.01-3.75,18.02-5.63,27.03-4.37,21-8.75,42-13.12,63.01-4.96,23.8-9.91,47.6-14.87,71.39-2.26,10.87-4.77,21.72-7.16,32.6h0s-.08.39-.08.39c-1.77,8.07-3.44,16.16-4.9,24.27l-4.69,23.21,6.76-1.55c.71-.03,1.47-.13,2.33-.34,7.1-1.74,14.22-3.39,21.34-5.08l64.89-14.85-20.93,120.73-9.57,55.2,29.85-51.76,134.65-233.49-87.79,18.88Z"/>
</svg>